<svg width="128" height="144" viewBox="0 0 128 144" fill="none" xmlns="http://www.w3.org/2000/svg">
<path d="M63.1711 126.898C63.1711 126.898 48.5273 137.582 37.3458 136.334C26.1645 135.086 22.469 125.307 22.469 125.307C22.469 125.307 21.396 120.676 23.4045 117.465C23.4045 117.465 19.6784 120.395 20.3283 124.34C16.1037 122.226 7.31911 116.659 9.874 107.916C12.7132 98.1906 23.2365 92.9978 28.063 99.1626C28.206 99.4111 28.3296 99.6798 28.4278 99.9639C29.7023 103.562 27.6618 109.63 26.115 110.639C24.4476 111.723 20.7298 110.779 20.6605 108.329C20.5915 105.927 24.1016 106.01 24.2337 106.013C24.1077 105.923 21.4636 104.108 19.5717 107.02C17.6386 110.007 24.5323 114.205 27.5301 112.477C30.5266 110.745 29.9797 103.372 29.9797 103.372C29.9797 103.372 39.9233 96.0334 44.4865 101.941C48.9585 107.725 46.0824 114.524 45.9616 114.806L45.9571 114.812C45.9571 114.812 41.859 118.308 38.0713 116.518C34.2821 114.732 35.2601 108.737 37.3127 108.467C39.3107 108.204 39.9037 111.045 39.937 111.2C39.959 110.994 40.424 105.965 37.6085 106.459C34.7324 106.963 32.1634 110.748 34.1542 114.792C36.1467 118.831 40.4518 120.748 43.9134 118.571C47.3763 116.397 45.9242 113.683 50.0703 114.104C50.4925 114.42 50.9083 114.906 51.291 115.623C52.483 117.864 52.2508 119.57 51.8092 120.633L49.2678 119.241L50.9819 121.933C50.9823 121.933 54.3955 127.615 63.1711 126.898Z" fill="#0A457B" fill-opacity="0.5"/>
<path d="M88.7089 125.189C88.7089 125.189 99.2678 133.108 107.421 132.307C115.574 131.506 118.358 124.422 118.358 124.422C118.358 124.422 119.184 121.061 117.753 118.703C117.753 118.703 120.438 120.873 119.926 123.738C123.023 122.24 129.472 118.272 127.696 111.881C125.722 104.773 118.111 100.891 114.537 105.333C114.43 105.513 114.338 105.707 114.264 105.913C113.301 108.52 114.728 112.958 115.845 113.707C117.048 114.512 119.764 113.861 119.838 112.078C119.911 110.33 117.355 110.356 117.259 110.357C117.351 110.293 119.294 108.997 120.644 111.136C122.022 113.329 116.963 116.319 114.797 115.032C112.632 113.743 113.101 108.379 113.101 108.379C113.101 108.379 105.932 102.941 102.553 107.198C99.2412 111.366 101.27 116.344 101.355 116.551L101.358 116.555C101.358 116.555 104.308 119.139 107.083 117.872C109.859 116.609 109.205 112.235 107.713 112.018C106.261 111.808 105.802 113.871 105.776 113.983C105.762 113.832 105.472 110.167 107.517 110.553C109.606 110.948 111.44 113.729 109.952 116.654C108.462 119.576 105.309 120.929 102.81 119.311C100.31 117.695 101.393 115.733 98.3701 116C98.0595 116.226 97.7524 116.576 97.4666 117.094C96.5772 118.714 96.7298 119.958 97.041 120.737L98.9048 119.748L97.6307 121.691C97.6312 121.691 95.0914 125.795 88.7089 125.189Z" fill="#0A457B" fill-opacity="0.5"/>
<path d="M92.677 114.776C92.217 114.86 91.9479 114.9 91.9479 114.9C91.9479 114.9 98.381 132.586 100.426 135.364C102.472 138.142 95.6031 139.603 89.6088 141.358C83.6145 143.113 75.4354 140.774 72.5819 141.358C69.7254 141.942 59.2438 144.296 53.5944 142.024C52.0783 141.416 50.9921 140.789 50.2295 140.172C49.6667 139.718 49.2855 139.267 49.0375 138.832C48.3747 137.655 48.7137 136.584 49.2584 135.803C50.1935 134.465 55.2951 111.816 56.3753 102.89C56.4176 102.572 56.4509 102.27 56.4782 101.988C56.5237 101.537 56.5538 101.135 56.5689 100.787C56.5689 100.787 48.1871 106.273 43.4122 108.028C43.1036 108.14 42.8101 108.24 42.5348 108.318C40.8373 108.812 39.2215 108.155 37.8113 106.887C35.457 104.772 33.6718 100.956 33.0334 97.9394C32.0076 93.1161 31.4236 78.3496 34.9337 78.7884C37.6418 79.1273 50.1147 83.5059 54.9835 81.551C56.4176 80.976 57.1924 79.8505 56.8626 77.9107C56.8626 77.9107 46.4806 63.6708 47.213 58.5117C47.2644 58.1576 47.3461 57.7734 47.4612 57.3589C48.9924 51.761 56.1273 41.3126 63.0386 40.6317C68.1675 40.1263 71.2328 42.0661 72.6338 43.3128C73.2603 43.8694 73.5567 44.2871 73.5567 44.2871C73.5567 44.2871 73.7746 44.3689 74.165 44.5232C77.0578 45.667 89.47 50.805 93.8486 56.3788C95.1072 57.9826 96.2421 59.329 97.2527 60.4728C100.233 63.8556 102.109 65.4927 102.766 66.7998C103.295 67.8559 101.649 69.257 99.8277 70.1101C98.6232 70.6729 97.3373 70.9967 96.5537 70.8213C96.1211 70.7244 95.6035 70.6337 95.0408 70.5489H95.0379C93.4644 70.3158 91.5701 70.1496 90.4687 70.1737C90.1631 70.1797 89.9151 70.201 89.7546 70.2373C89.7546 70.2373 88.641 74.628 85.9118 77.4512C85.7634 77.6085 85.6061 77.7628 85.4428 77.9112C85.4428 77.9112 88.272 82.1595 91.6973 87.5457C96.9625 95.8276 103.644 106.806 103.644 109.196C103.643 112.546 95.234 114.316 92.677 114.776Z" fill="#D4CFC4"/>
<path d="M54.9835 81.5512C54.817 81.9567 54.4842 82.3501 53.9425 82.7223C48.7198 86.3201 37.2002 83.155 37.2002 83.155L38.8311 87.821C38.8311 87.821 42.568 94.1028 43.4124 97.6702C44.2566 101.238 43.2158 105.256 42.9584 106.1C42.6982 106.941 41.0219 106.379 41.0219 106.379L37.8115 106.887C35.4572 104.772 33.672 100.956 33.0336 97.9394C32.0078 93.1161 31.4238 78.3495 34.9339 78.7884C37.6418 79.1275 50.1147 83.5061 54.9835 81.5512Z" fill="white"/>
<path d="M102.79 108.025C102.56 107.689 87.7448 86.1628 85.8174 82.4984C83.8717 78.8008 82.7037 74.5099 82.7037 74.5099L85.9111 77.4512C85.7627 77.6085 85.6054 77.7628 85.4422 77.9111C85.4422 77.9111 88.2713 82.1595 91.6966 87.5457L102.79 108.025Z" fill="white"/>
<path d="M76.1255 49.888C75.8653 49.4857 71.5745 42.9979 64.2246 42.6197C56.6387 42.2323 47.4612 57.3589 47.4612 57.3589C48.9924 51.761 56.1273 41.3126 63.0385 40.6317C68.1675 40.1263 71.2328 42.0661 72.6338 43.3128L76.1255 49.888Z" fill="white"/>
<path d="M60.9504 93.9999C60.9504 93.9999 56.3239 123.542 54.1937 129.379C52.0666 135.213 50.3145 140.172 50.3145 140.172H50.2297C49.6669 139.718 49.2857 139.268 49.0376 138.832C48.3749 137.655 48.7139 136.584 49.2586 135.803C50.1936 134.466 55.2953 111.817 56.3755 102.89C57.368 101.044 57.9945 99.8915 57.9945 99.8915L59.3501 91.7761L60.9504 93.9999Z" fill="white"/>
<path d="M89.6088 141.358C83.6145 143.114 75.4354 140.774 72.5819 141.358C69.7254 141.942 59.2438 144.297 53.5944 142.024C50.9588 140.965 49.6152 139.858 49.0374 138.832C49.3672 138.323 49.5943 137.981 49.5943 137.981C49.5943 137.981 56.9623 140.142 61.111 139.364C65.2624 138.583 69.8497 113.45 70.1493 115.19C70.4488 116.927 72.5821 128.501 72.5821 128.501L73.2901 136.862C73.2901 136.862 80.174 138.768 86.6586 136.862C93.0825 134.971 88.5196 107.181 88.4348 106.666L92.6772 114.776C92.2172 114.861 91.9481 114.9 91.9481 114.9C91.9481 114.9 98.3812 132.586 100.427 135.364C102.472 138.142 95.603 139.603 89.6088 141.358Z" fill="#7F777F"/>
<path d="M58.9078 97.6702L56.478 101.988C56.5235 101.537 56.5536 101.135 56.5687 100.787C56.5687 100.787 48.1869 106.273 43.412 108.028C45.3485 104.118 44.4105 99.5432 44.4105 99.5432C44.4105 99.5432 54.626 95.0103 55.6578 92.8014C56.6895 90.5925 53.7272 82.0807 53.7272 82.0807C53.7272 82.0807 57.5126 82.108 58.4839 85.8752C59.4587 89.6425 58.9078 97.6702 58.9078 97.6702Z" fill="#7F777F"/>
<path d="M81.3906 75.4461C81.3906 75.4461 82.8982 81.6729 83.0926 83.1552C83.2871 84.6373 75.1172 99.4506 75.3116 101.187C75.5061 102.922 75.4021 106.969 75.3082 108.739C75.2143 110.509 66.7526 119.068 64.7102 119.36C62.6678 119.652 55.5006 111.078 55.5006 111.078L57.3542 102.484L61.5041 104.079L59.3609 105.451C59.3609 105.451 63.6383 105.711 65.9251 104.025C68.2119 102.339 70.6953 86.5827 70.6953 86.5827L78.8456 70.8693L81.3906 75.4461Z" fill="#7F777F"/>
<path d="M76.5762 50.5958L79.3286 55.8341C79.3286 55.8341 82.2429 50.0612 79.3286 47.0864C76.4142 44.1117 72.8619 43.9821 72.8619 43.9821L76.5762 50.5958Z" fill="#7F777F"/>
<path d="M90.4681 70.1739C90.1624 70.1799 89.9144 70.2012 89.7539 70.2375C89.7539 70.2375 88.6404 74.6282 85.9111 77.4514L82.7037 74.5102C85.7175 72.3557 85.8174 62.9602 85.8174 62.9602L90.3865 69.8593C90.3865 69.8593 90.4168 69.9771 90.4681 70.1739Z" fill="#7F777F"/>
<path d="M53.7269 73.5435C53.7269 73.5435 48.7917 61.5481 49.3106 59.0871C49.8293 56.6259 56.1102 45.8301 61.0426 45.3436C65.9748 44.8574 75.1189 52.0175 77.89 59.8171C80.6613 67.6164 53.7269 73.5435 53.7269 73.5435Z" fill="#7F777F"/>
<path d="M99.8275 70.1103C98.623 70.6731 97.337 70.9969 96.5535 70.8215C96.1209 70.7246 95.6033 70.6339 95.0406 70.5491H95.0376L95.2831 70.0268L86.7798 62.9632C86.9794 63.0177 93.7122 64.8938 94.862 64.6759C96.0299 64.455 100.884 66.1706 101.328 66.9362C101.588 67.3808 100.653 68.912 99.8275 70.1103Z" fill="#7F777F"/>
<path d="M59.9795 143.851C57.5364 143.851 55.172 143.576 53.2757 142.813C50.2442 141.594 48.4564 140.131 47.9621 138.467C47.6492 137.414 47.8567 136.324 48.5623 135.316C49.5053 133.705 54.626 110.957 55.5779 102.429C52.7103 104.235 46.3383 108.101 42.7714 109.137C41.3634 109.546 39.9382 109.328 38.5376 108.489C35.4261 106.626 32.9941 101.861 32.1999 98.1163C31.413 94.4063 30.5229 81.5971 33.2234 78.6575C33.8637 77.9609 34.5642 77.8855 35.038 77.9444C35.7819 78.0375 37.12 78.3892 38.814 78.8345C43.7669 80.1369 52.9865 82.5612 55.4923 80.2682C55.9869 79.8155 56.1704 79.1519 56.0515 78.2439C54.5199 76.1259 45.6363 63.5758 46.3705 58.3922C47.0979 53.2583 54.7826 40.5912 62.9553 39.7861C69.8945 39.1022 73.3046 42.6353 74.0813 43.577C76.0794 44.3462 89.7311 49.761 94.5173 55.8541C97.1272 59.1772 99.2061 61.3878 100.724 63.0021C102.13 64.4968 103.059 65.4844 103.527 66.4205C103.732 66.8314 103.952 67.6801 103.118 68.7485C101.866 70.3523 98.3001 72.0804 96.3682 71.6518C94.5892 71.2563 91.6627 70.9854 90.4143 71.0219C90.0047 72.3493 88.8141 75.6657 86.5418 78.0292C89.6465 82.7131 104.494 105.317 104.494 109.197C104.494 113.135 96.4075 114.981 93.0998 115.57C95.1081 121.033 99.5899 132.795 101.112 134.861C101.765 135.746 101.701 136.515 101.534 137.005C100.822 139.077 96.7723 140.217 92.0832 141.538C91.3372 141.748 90.5859 141.959 89.848 142.175C85.9621 143.313 81.3358 142.816 77.6181 142.417C75.5178 142.192 73.7048 141.998 72.7527 142.193L72.2927 142.288C69.8646 142.792 64.7727 143.851 59.9795 143.851ZM56.5689 99.9348C56.7141 99.9348 56.8592 99.972 56.9898 100.046C57.2673 100.204 57.4329 100.504 57.4188 100.823C57.1275 107.443 51.1966 134.52 49.9563 136.292C49.5531 136.867 49.431 137.437 49.5932 137.982C49.8263 138.767 50.7646 139.969 53.9112 141.235C59.0497 143.303 68.7564 141.285 71.9457 140.622L72.411 140.526C73.6214 140.278 75.4651 140.475 77.7988 140.726C81.3669 141.109 85.8082 141.585 89.3695 140.543C90.1127 140.325 90.8696 140.112 91.6211 139.9C95.1322 138.912 99.502 137.681 99.9237 136.453C99.9453 136.39 100.002 136.224 99.7417 135.87C97.6465 133.026 91.4125 115.916 91.1481 115.189C91.0608 114.949 91.086 114.683 91.2164 114.464C91.3468 114.244 91.569 114.095 91.8213 114.057C96.3768 113.372 102.792 111.411 102.792 109.197C102.792 106.509 91.7156 88.8701 84.734 78.3831C84.5005 78.0324 84.559 77.5637 84.8714 77.2808C87.7085 74.714 88.9185 70.0734 88.9304 70.0268C89.009 69.7184 89.2534 69.4791 89.5635 69.4076C90.7515 69.1332 94.8752 69.5773 96.7373 69.9908C97.807 70.23 100.747 69.0202 101.777 67.7014C101.982 67.4395 102.039 67.2483 102.005 67.1812C101.648 66.4681 100.741 65.5032 99.4847 64.1675C97.9449 62.5299 95.8359 60.2875 93.179 56.9049C88.4105 50.834 73.4084 45.1405 73.2575 45.0837C73.0982 45.0239 72.9606 44.9174 72.8624 44.7785C72.7473 44.6194 69.9165 40.8104 63.122 41.4791C56.3698 42.1444 48.7773 53.5342 48.0552 58.6308C47.4955 62.582 54.7186 73.5266 57.549 77.4106C57.6263 77.5167 57.6782 77.6394 57.6999 77.7686C57.9725 79.3677 57.6161 80.6306 56.6411 81.5232C53.6979 84.217 46.0068 82.4852 38.3814 80.4799C36.8132 80.0675 35.4587 79.7115 34.8274 79.6325C34.7642 79.6249 34.6579 79.6112 34.4767 79.8086C32.5845 81.8681 32.9088 93.2578 33.8643 97.7631C34.5646 101.064 36.7469 105.433 39.4121 107.029C40.3907 107.615 41.3623 107.774 42.2974 107.502C46.6554 106.237 56.0097 100.135 56.1036 100.073C56.2445 99.9814 56.4065 99.9348 56.5689 99.9348Z" fill="#621A40"/>
<path d="M80.0319 78.8612C80.0259 78.9367 80.0048 79.0488 79.9653 79.191C79.1393 82.1411 71.2296 98.6384 70.6031 99.4766C69.9436 100.351 68.1825 99.5855 66.8177 99.4766C65.45 99.3678 61.0655 96.9531 59.8581 93.2281C58.6538 89.4972 56.8957 86.5378 56.1301 84.0173C55.3617 81.4938 54.1572 76.4736 54.484 75.4752C54.702 74.8216 55.3888 73.5113 55.8336 72.6883C56.0697 72.2556 56.2392 71.9559 56.2392 71.9559C56.2392 71.9559 56.2029 71.8501 56.1393 71.6563C56.0607 71.4354 55.9487 71.0934 55.8095 70.6608C55.2859 69.0359 54.4115 66.1461 53.9274 63.5619C53.776 62.7722 53.6642 62.0096 53.6098 61.3197C53.5916 61.108 53.5916 60.8871 53.6006 60.651C53.652 59.5618 54.0029 58.2485 54.5538 56.9019C54.7959 56.315 55.0742 55.7248 55.3828 55.1438C57.1469 51.8517 59.9065 48.8832 62.2697 49.1465C66.0824 49.5732 75.6382 55.731 77.5566 61.1927C77.6232 61.3833 77.6806 61.571 77.7291 61.7586C79.1542 67.3505 78.4977 71.9559 78.4977 71.9559C78.4977 71.9559 80.1437 77.2181 80.0319 78.8612Z" fill="#FFCFA5"/>
<path d="M58.2667 67.763C58.8401 67.6026 59.1088 66.7713 58.8668 65.9063C58.6248 65.0413 57.9638 64.4701 57.3904 64.6305C56.817 64.7909 56.5484 65.6221 56.7904 66.4872C57.0323 67.3522 57.6933 67.9234 58.2667 67.763Z" fill="#FFECC9"/>
<path d="M70.9288 63.9475C71.0201 63.0539 70.6139 62.2805 70.0216 62.22C69.4293 62.1595 68.8751 62.8348 68.7839 63.7284C68.6926 64.622 69.0988 65.3954 69.6911 65.4559C70.2834 65.5164 70.8376 64.8411 70.9288 63.9475Z" fill="#FFECC9"/>
<path d="M58.5479 62.1521C57.4556 61.9524 55.982 62.5878 55.0257 63.2535C54.7534 63.4441 54.3389 63.5562 53.9274 63.5621C53.776 62.7724 53.6642 62.0098 53.6098 61.3199C53.5916 61.1082 53.5916 60.8873 53.6006 60.6512C54.8806 59.329 55.9971 59.6497 57.1258 59.9311C57.6765 60.0672 58.2271 60.5242 58.5904 60.9872C59.0956 61.6256 59.2438 62.2791 58.5479 62.1521Z" fill="#D77D75"/>
<path d="M70.6582 59.8711C69.233 59.4323 67.1874 59.2265 65.9258 59.8711C65.1149 60.2886 65.0513 59.4293 65.4385 58.4701C65.7079 57.7892 66.2041 57.0569 66.8152 56.6938C68.2888 55.8164 69.7261 54.8843 72.4675 56.9117C72.643 57.0417 72.7943 57.1689 72.9245 57.2929C74.8158 59.1085 71.9926 60.2826 70.6582 59.8711Z" fill="#D77D75"/>
<path d="M57.9215 70.9241L56.1392 71.6565C56.0607 71.4355 55.9486 71.0936 55.8095 70.661C55.1256 68.5398 53.8456 64.2641 53.6097 61.3199C53.5128 60.1217 53.8821 58.536 54.5538 56.9021C54.7958 56.3152 55.0742 55.725 55.3828 55.144L55.9064 54.8051C55.8761 54.8776 55.3708 56.0669 55.3013 59.816C55.2315 63.6893 57.9215 70.9241 57.9215 70.9241Z" fill="#FFECC9"/>
<path d="M80.0318 78.8611C80.0259 78.9367 80.0047 79.0488 79.9653 79.1909L55.8336 72.6882C56.0697 72.2556 56.2391 71.9559 56.2391 71.9559C56.2391 71.9559 56.0667 71.4626 55.8095 70.6607C57.2528 69.0964 59.6493 66.9238 62.1487 66.4939C66.1398 65.8071 72.0888 66.9358 72.0888 66.9358V57.7853C72.0888 57.7853 64.6118 53.6429 61.3711 53.664C58.1304 53.6881 55.1316 57.4675 55.1316 57.4675L54.5536 56.9017C56.1604 52.9983 59.4888 48.8377 62.2697 49.1463C66.0824 49.573 75.6382 55.7307 77.5566 61.1925C77.6232 61.3831 77.6806 61.5707 77.729 61.7583C79.1542 67.3503 78.4976 71.9557 78.4976 71.9557C78.4976 71.9557 80.1437 77.2181 80.0318 78.8611Z" fill="#D77D75"/>
<path d="M69.5504 100.737C68.9981 100.737 68.4175 100.62 67.8948 100.514C67.4822 100.43 67.0922 100.351 66.7486 100.324C65.1147 100.194 60.3932 97.6372 59.0487 93.4892C58.4223 91.5498 57.6261 89.7853 56.9237 88.2283C56.2898 86.8232 55.6908 85.4964 55.3158 84.2642C55.2936 84.1912 53.1328 76.87 53.677 75.2099C53.9611 74.3518 54.8964 72.6212 55.3109 71.8716C54.8177 70.4134 53.0525 64.9997 52.7607 61.3872C52.5178 58.377 54.8883 53.2284 57.8338 50.3691C59.3876 48.861 60.955 48.1481 62.3635 48.3022C66.2252 48.734 76.2743 54.9765 78.3611 60.9104C78.443 61.1518 78.5052 61.3579 78.5538 61.5494C79.8556 66.6543 79.4757 70.9171 79.3638 71.8785C79.6868 72.9269 80.9911 77.2871 80.8805 78.9184C80.7533 80.8338 71.9427 99.1086 71.2836 99.9865C70.8499 100.564 70.2209 100.737 69.5504 100.737ZM61.9788 49.9826C61.1355 49.9826 60.0941 50.5461 59.0188 51.5898C56.4725 54.0619 54.255 58.7565 54.4565 61.2502C54.7718 65.1517 57.0189 71.6089 57.0417 71.6738C57.1226 71.9049 57.0998 72.1596 56.9796 72.3728C56.5952 73.0541 55.5429 74.9874 55.2928 75.7424C55.1233 76.4354 55.9698 80.5677 56.9435 83.7688C57.2868 84.8962 57.8372 86.1158 58.4743 87.5284C59.1951 89.1258 60.0122 90.9366 60.6672 92.9654C61.7577 96.3294 65.7999 98.5413 66.8839 98.628C67.3296 98.6634 67.7885 98.7565 68.2322 98.8461C68.7338 98.9477 69.7775 99.1579 69.9223 98.9652C70.8618 97.6067 78.986 80.3145 79.1826 78.7993C79.2535 77.7125 78.3017 74.1819 77.6843 72.2087C77.6463 72.0876 77.636 71.9598 77.6542 71.8343C77.6601 71.7903 78.2678 67.3145 76.9041 61.9688C76.8659 61.8181 76.8177 61.6585 76.7524 61.4659C74.9595 56.3679 65.6246 50.3788 62.175 49.9931C62.111 49.9862 62.0454 49.9826 61.9788 49.9826Z" fill="#621A40"/>
<path d="M80.0319 78.8612C79.923 80.5073 71.2597 98.5992 70.6031 99.4766C69.9436 100.351 68.1825 99.5855 66.8177 99.4766C66.7481 99.4706 66.6724 99.4585 66.5876 99.4403C65.0141 99.1195 61.0049 96.7655 59.858 93.2281C58.6538 89.4972 56.8957 86.5378 56.1301 84.0173C55.3617 81.4938 54.1572 76.4736 54.484 75.4752C54.817 74.4767 56.2392 71.9559 56.2392 71.9559C56.2392 71.9559 60.1033 68.0918 62.9416 67.526C63.2018 67.4745 63.456 67.4504 63.6951 67.4594C66.5486 67.5682 73.6715 68.8845 74.6581 68.8845C75.6476 68.8845 77.5568 61.1927 77.5568 61.1927C77.6234 61.3834 77.6808 61.571 77.7293 61.7586C79.1544 67.3505 78.4979 71.9559 78.4979 71.9559C78.4979 71.9559 80.1437 77.2181 80.0319 78.8612Z" fill="#B18978"/>
<path d="M80.0319 78.8612C79.923 80.5072 71.2596 98.5991 70.6031 99.4766C69.9436 100.351 68.1825 99.5854 66.8177 99.4766C66.7481 99.4706 66.6724 99.4584 66.5876 99.4403L66.5543 98.8171L62.4725 95.1405L65.1836 96.5023L63.9309 89.8907L67.2352 96.0182L68.6454 89.8907V96.5023C68.8482 94.7382 75.1178 81.7206 75.4083 80.5405C75.7018 79.3634 74.34 75.4448 74.34 75.4448L73.2901 77.3906C73.2901 77.3906 73.8529 72.6731 73.2901 71.4084C72.7273 70.1466 63.0383 68.2282 63.0383 68.2282L62.9414 67.5262C63.2016 67.4747 63.4558 67.4506 63.6949 67.4596C66.5483 67.5684 73.6713 68.8847 74.6578 68.8847C75.6473 68.8847 77.5566 61.1929 77.5566 61.1929C77.6232 61.3835 77.6806 61.5712 77.729 61.7588C79.1542 67.3507 78.4976 71.9561 78.4976 71.9561C78.4976 71.9561 80.1437 77.2181 80.0319 78.8612Z" fill="#81535C"/>
<path d="M69.5598 100.599C69.0292 100.599 68.4595 100.483 67.9229 100.375C67.5242 100.294 67.1118 100.211 66.7599 100.183C65.1535 100.054 60.5088 97.5349 59.1834 93.4454C58.5548 91.4988 57.7567 89.7304 57.0528 88.17C56.4206 86.7694 55.8238 85.4465 55.4513 84.223C55.4291 84.1504 53.2804 76.8745 53.8115 75.2544C54.1609 74.1996 55.5617 71.7119 55.6208 71.6065C55.6526 71.5504 55.6917 71.4991 55.7371 71.4537C56.2308 70.9596 60.654 66.6195 63.7224 66.7505C65.4617 66.8169 68.6702 67.3095 71.2486 67.7052C72.5725 67.9084 73.9362 68.1178 74.4818 68.1656C75.042 67.4448 76.1332 63.9903 76.8702 61.0217C76.9459 60.7163 77.214 60.4975 77.5286 60.4843C77.8388 60.4713 78.1284 60.6668 78.2296 60.965C78.3075 61.194 78.3683 61.3965 78.4159 61.5844C79.7269 66.7247 79.325 71.0029 79.2193 71.8919C79.5249 72.8825 80.8489 77.287 80.7388 78.9094C80.6122 80.8161 71.8272 99.0262 71.1698 99.9015C70.7692 100.435 70.192 100.599 69.5598 100.599ZM56.808 72.3883C56.3888 73.1369 55.4018 74.9618 55.1581 75.698C54.9651 76.3656 55.8125 80.5375 56.8078 83.8102C57.1535 84.9462 57.7057 86.17 58.3452 87.5866C59.0645 89.1808 59.8796 90.9876 60.5323 93.0089C61.6413 96.4304 65.7657 98.6809 66.8728 98.7692C67.3097 98.8042 67.7643 98.8962 68.204 98.9852C68.8928 99.1246 69.836 99.315 70.0358 99.0504C70.9438 97.7667 79.1783 80.2242 79.3239 78.8133C79.4084 77.5726 78.2665 73.5949 77.8196 72.1666C77.788 72.066 77.7794 71.9593 77.7942 71.855C77.7997 71.8165 78.2526 68.4862 77.5092 64.1373C75.944 69.5935 75.0954 69.5935 74.6585 69.5935C74.2267 69.5935 73.0592 69.4177 71.033 69.1067C68.4905 68.7165 65.3264 68.2309 63.6678 68.1673C61.6123 68.0926 58.0908 71.1239 56.808 72.3883Z" fill="#621A40"/>
<path d="M72.5759 107.15C72.7968 109.014 64.9567 116.47 61.6132 115.702C59.5464 115.23 57.1409 113.16 55.5008 111.081V111.078C54.4872 109.795 53.7671 108.509 53.5946 107.589C53.1408 105.178 54.3207 99.9671 55.8005 99.8913C56.3572 99.861 57.3014 100.445 58.2604 101.186C58.6719 101.501 59.0835 101.846 59.4738 102.185C60.5965 103.159 61.5043 104.079 61.5043 104.079C61.5043 104.079 60.5784 103.864 59.6617 103.616C58.9082 103.411 58.1637 103.187 57.9398 103.038C57.4466 102.709 57.4466 105.616 57.6101 106.055C57.7734 106.479 58.7144 107.901 60.2335 108.022C60.2728 108.025 60.3122 108.028 60.3515 108.028C61.9402 108.082 65.2867 104.793 65.9253 104.025C66.2914 103.586 66.5304 102.155 66.6696 101.017C66.7725 100.166 66.8179 99.4766 66.8179 99.4766H70.6033L70.6577 102.49C70.6577 102.49 72.3582 105.286 72.5759 107.15Z" fill="#B18978"/>
<path d="M60.3272 108.736C60.3272 108.736 59.029 108.824 56.9896 108.046C54.9532 107.266 55.8609 101.301 55.8609 101.301L58.2604 101.186C58.672 101.501 59.0835 101.846 59.4738 102.185L59.6615 103.616C58.908 103.41 58.1635 103.187 57.9396 103.038C57.4464 102.708 57.4464 105.616 57.6099 106.055C57.7731 106.479 58.7142 107.901 60.2333 108.022L60.3272 108.736Z" fill="#81535C"/>
<path d="M72.576 107.15C72.7969 109.014 64.9567 116.47 61.6132 115.702C59.5464 115.23 57.141 113.16 55.5009 111.081V111.078C54.8593 109.187 54.3359 107.626 54.2905 107.459C54.1664 107.011 60.4301 112.745 60.4301 112.745C60.4301 112.745 63.2501 112.842 65.1838 112.258C67.1174 111.677 67.9494 108.563 67.9494 108.563L68.6454 106.618L66.5968 109.147L67.9494 104.575L66.8148 103.822L66.6694 101.017C66.7723 100.166 66.8177 99.4766 66.8177 99.4766H70.6031L70.6575 102.49C70.6575 102.49 72.3582 105.286 72.576 107.15Z" fill="#81535C"/>
<path d="M62.1252 116.466C61.8934 116.466 61.6691 116.443 61.4537 116.393C57.7921 115.553 53.381 110.295 52.8967 107.72C52.5114 105.672 53.1752 101.608 54.471 99.9605C54.8573 99.4696 55.2923 99.2079 55.7645 99.1831C55.7852 99.1823 55.8065 99.1816 55.8278 99.1816C57.5204 99.1816 60.9771 102.541 62.007 103.581C62.2292 103.806 62.2759 104.15 62.1218 104.425C61.9681 104.701 61.6495 104.842 61.3425 104.771C60.6294 104.605 59.1823 104.255 58.2617 103.938C58.1983 104.572 58.2109 105.563 58.2811 105.826C58.346 105.996 59.1116 107.275 60.3758 107.319C60.3831 107.319 60.3906 107.319 60.3978 107.319C61.4729 107.319 64.4398 104.7 65.3808 103.572C65.6434 103.246 65.984 101.31 66.1091 99.4292C66.1336 99.0568 66.4431 98.7673 66.8164 98.7673H70.6029C70.9894 98.7673 71.3047 99.077 71.3119 99.4632L71.3638 102.29C71.7452 102.943 73.0762 105.325 73.2811 107.068C73.4796 108.755 70.1024 111.879 69.4232 112.488C68.325 113.472 64.7668 116.465 62.1252 116.466ZM55.8556 100.599C55.8498 100.599 55.8441 100.599 55.8385 100.599C55.0799 100.797 53.8424 105.078 54.2902 107.458C54.6913 109.591 58.6929 114.305 61.7711 115.011C62.9199 115.276 65.2549 114.128 67.7159 112.088C70.4802 109.796 71.8914 107.706 71.8724 107.229C71.6744 105.546 70.0684 102.885 70.0522 102.858C69.9871 102.751 69.9517 102.628 69.9491 102.503L69.9069 100.185H67.4721C67.3569 101.482 67.0738 103.754 66.47 104.479C66.4337 104.523 62.5361 108.821 60.3272 108.736C58.4566 108.671 57.2225 107.038 56.9467 106.303C56.795 105.898 56.5775 103.1 57.3544 102.484C57.6402 102.257 58.0248 102.243 58.3328 102.449C58.4241 102.503 58.6559 102.585 58.974 102.683C57.5456 101.449 56.3045 100.599 55.8556 100.599Z" fill="#621A40"/>
<path d="M66.8164 99.476C66.8164 99.476 69.5184 98.3957 70.8558 99.045C72.1932 99.6943 70.6582 102.49 70.6582 102.49C70.6582 102.49 67.8747 103.038 66.4431 102.49C65.0114 101.942 66.8164 99.476 66.8164 99.476Z" fill="#0A457B"/>
<path d="M68.1955 103.444C67.4892 103.444 66.7635 103.372 66.1893 103.152C65.7125 102.97 65.3883 102.628 65.2515 102.165C64.9012 100.977 66.0171 99.3677 66.2442 99.0574C66.3227 98.9503 66.4297 98.8672 66.5533 98.8179C66.8598 98.6958 69.5916 97.6436 71.1653 98.4075C71.5768 98.607 71.8692 98.9485 72.0116 99.3946C72.415 100.662 71.4726 102.48 71.2797 102.831C71.1785 103.015 71.0014 103.145 70.7954 103.186C70.6012 103.224 69.4285 103.444 68.1955 103.444ZM67.273 100.061C66.8706 100.664 66.5206 101.457 66.6117 101.764C66.6166 101.782 66.6222 101.799 66.6965 101.828C67.5852 102.169 69.2891 101.997 70.186 101.854C70.4951 101.197 70.8003 100.263 70.6605 99.8249C70.633 99.7391 70.599 99.709 70.5461 99.6832C69.8315 99.3359 68.2409 99.7069 67.273 100.061Z" fill="#621A40"/>
<path d="M70.6576 58.4122C69.2324 57.9734 67.1868 57.7676 65.9251 58.4122C65.1143 58.8297 65.0507 57.9704 65.4378 57.0112C65.7072 56.3303 66.2035 55.598 66.8148 55.2349C68.2884 54.3575 69.7257 53.4254 72.4671 55.4529C72.6426 55.5831 72.7939 55.7101 72.9241 55.8341C74.8152 57.6496 71.992 58.8235 70.6576 58.4122Z" fill="#B18978"/>
<path d="M70.6576 58.4122C69.2324 57.9734 67.1868 57.7676 65.9251 58.4122C65.1143 58.8297 65.0507 57.9704 65.4378 57.0112C66.3638 56.5967 68.2551 55.8403 69.1869 56.0913C70.4488 56.4302 72.122 56.6723 72.6485 56.0398C72.7151 55.9611 72.8088 55.8915 72.9239 55.8341C74.8152 57.6496 71.992 58.8235 70.6576 58.4122Z" fill="#81535C"/>
<path d="M65.5599 59.0871C65.183 59.0871 64.9183 58.8756 64.7837 58.6325C64.2624 57.6904 65.2389 55.5111 66.5249 54.7462L66.6143 54.6928C68.1153 53.7987 69.8155 52.7853 72.8046 54.9969C74.4009 56.1781 74.2103 57.2035 73.9546 57.7094C73.3949 58.8173 71.6025 59.2971 70.4913 58.9552C69.1726 58.5497 67.2621 58.3646 66.184 58.9176C65.9512 59.0374 65.7424 59.0871 65.5599 59.0871ZM67.9936 57.4357C68.9989 57.4357 70.0253 57.625 70.8249 57.8711C71.5015 58.0786 72.6878 57.7015 72.9422 57.198C73.1706 56.7457 72.4502 56.1457 72.1301 55.9088C69.7474 54.1455 68.6211 54.8172 67.1953 55.6672L67.105 55.7209C66.3584 56.1651 65.8489 57.2983 65.7766 57.8547C66.421 57.5538 67.2004 57.4357 67.9936 57.4357Z" fill="#621A40"/>
<path d="M58.1665 60.9842C57.0742 60.7844 55.6005 61.4198 54.6443 62.0855C54.1118 62.4578 53.0557 62.5244 52.4928 62.1278C52.0421 61.8192 51.9029 61.217 52.5927 60.2457C54.1451 58.0579 55.4371 58.4361 56.7444 58.7629C57.2951 58.8991 57.846 59.3561 58.209 59.819C58.7142 60.4576 58.8626 61.1112 58.1665 60.9842Z" fill="#B18978"/>
<path d="M58.209 59.8192C58.7142 60.4576 58.8626 61.1112 58.1665 60.9842C57.0741 60.7844 55.6005 61.4198 54.6443 62.0856C54.1118 62.4578 53.0557 62.5244 52.4928 62.1278C53.0587 61.6678 53.9242 60.9902 54.7412 60.4847C55.7581 59.8555 57.4282 59.8041 58.209 59.8192Z" fill="#81535C"/>
<path d="M53.4945 62.9613C52.9101 62.9613 52.3253 62.7935 51.95 62.4155C51.603 62.0653 51.1644 61.2753 52.1289 59.9176C53.8766 57.4579 55.4989 57.8656 56.8024 58.1926L56.8814 58.2124C58.0858 58.5136 59.3778 60.0314 59.1855 60.9189C59.1057 61.2869 58.7642 61.6706 58.0636 61.5421C57.1663 61.3776 55.831 61.95 54.9698 62.5515C54.5952 62.8127 54.045 62.9613 53.4945 62.9613ZM55.2682 59.0767C54.5591 59.0767 53.886 59.403 53.054 60.5744C52.9235 60.7579 52.5165 61.3756 52.7558 61.6166C53.032 61.8952 53.9239 61.8975 54.3207 61.6211C55.2385 60.9806 56.6872 60.3153 57.9221 60.3853C57.6681 59.9915 57.1315 59.4442 56.6063 59.313L56.5264 59.2929C56.0733 59.1791 55.665 59.0767 55.2682 59.0767Z" fill="#621A40"/>
<path d="M58.1556 67.1786C58.729 67.0182 58.9976 66.187 58.7556 65.322C58.5136 64.4569 57.8526 63.8858 57.2793 64.0462C56.7059 64.2066 56.4372 65.0378 56.6792 65.9028C56.9212 66.7678 57.5822 67.339 58.1556 67.1786Z" fill="#621A40"/>
<path d="M70.8174 63.3639C70.9087 62.4703 70.5025 61.6969 69.9102 61.6364C69.3179 61.5759 68.7637 62.2512 68.6725 63.1448C68.5812 64.0384 68.9874 64.8118 69.5797 64.8723C70.172 64.9328 70.7262 64.2575 70.8174 63.3639Z" fill="#621A40"/>
<path d="M67.2333 74.5115C67.645 74.2965 68.01 74.1382 68.3587 73.9853C68.7064 73.8342 69.0285 73.6891 69.3327 73.5373C69.6373 73.3832 69.9094 73.2125 70.1941 73.0103C70.4925 72.8136 70.7363 72.5429 71.0963 72.2285C71.1922 72.674 71.1299 73.1728 70.8791 73.5817C70.6394 73.9932 70.2686 74.3392 69.8477 74.5476C69.427 74.7572 68.9707 74.8583 68.5237 74.8588C68.0776 74.8523 67.6305 74.7665 67.2333 74.5115Z" fill="#621A40"/>
<path d="M36.1336 79.7525C36.1336 79.7525 39.4187 89.2449 41.516 93.8597C43.613 98.4745 43.1225 104.467 41.9354 105.638C40.7484 106.809 36.3031 102.884 35.704 98.3375C35.1046 93.7907 33.268 84.0354 36.1336 79.7525Z" fill="#621A40"/>
<path d="M43.7087 134.889C43.7087 134.889 38.6554 113.711 33.9653 94.1875C32.5916 88.4746 31.251 82.901 30.077 78.0443C28.3947 71.0908 27.0541 65.6018 26.4549 63.2507C26.2221 62.343 25.9708 61.42 25.7077 60.4849H25.7045C23.1718 51.5343 19.4771 41.6396 21.2625 35.8814C23.2384 29.5208 33.7988 23.6023 32.2467 20.313C32.2285 20.2737 32.2074 20.2342 32.1863 20.1949C32.1226 20.0769 32.0471 19.9529 31.9532 19.8197C29.5022 16.2853 17.6618 9.02023 15.7827 11.3198C14.1667 13.2957 10.3512 19.0844 9.85795 21.726C9.7459 22.3129 9.80054 22.7426 10.0789 22.9424C11.6161 24.0407 19.1809 22.7244 19.9465 24.1496C20.7151 25.5747 13.368 36.1019 11.1774 35.1126C8.9837 34.126 1.41892 27.4389 0.871225 22.2856C0.865249 22.225 0.859059 22.1616 0.859059 22.095C0.598874 16.7361 11.9913 0.474896 16.0008 1.23432C20.0585 1.99993 36.0658 7.48281 40.1233 12.9659C40.335 13.2504 40.5167 13.5559 40.674 13.8767C41.6391 15.8132 41.6876 18.3429 41.2701 20.933C40.4259 26.1467 37.6935 31.5993 36.7221 32.9216C35.1879 35.0035 27.1845 44.3232 28.1708 50.4628C29.1573 56.6054 44.9464 128.201 44.9464 128.201C44.9464 128.201 45.2128 130.619 45.255 132.761C45.3035 135.258 45.0463 137.388 43.7087 134.889Z" fill="#D4A36C"/>
<path d="M40.674 13.8767C40.3591 14.0673 39.9538 13.9644 39.4394 13.4711C35.4028 9.60996 22.337 5.79129 22.337 5.79129L23.0631 7.87917L16.2426 3.97597C12.993 4.90188 1.71539 22.1949 1.71539 22.1949L0.859059 22.095C0.598875 16.7361 11.9913 0.474896 16.0008 1.23432C20.0585 1.99993 36.0658 7.48281 40.1233 12.9659C40.335 13.2504 40.5164 13.5561 40.674 13.8767Z" fill="#E7D08D"/>
<path d="M37.2818 17.2356L30.5067 29.5238C30.5067 29.5238 24.2823 34.7102 23.8922 37.0431C23.5048 39.379 23.8922 45.8636 23.8922 45.8636L23.057 43.9815L25.7077 60.4847H25.7045C23.1718 51.5341 19.4771 41.6394 21.2626 35.8812C23.2384 29.5206 33.7988 23.6021 32.2467 20.3128C32.2285 20.2735 32.2074 20.234 32.1863 20.1947L37.2818 17.2356Z" fill="#E7D08D"/>
<path d="M45.2551 132.762C44.9373 134.877 44.6438 135.536 44.3958 134.111C42.8556 125.23 35.5631 93.5852 35.5631 93.5852L33.9655 94.1873L32.8065 94.6229L29.5264 78.5523L30.077 78.0439L31.8078 76.4463L26.1617 50.92L30.5069 36.6557L27.2389 37.1731L33.1002 32.7643L40.6046 19.3051L41.2703 20.933C40.4262 26.1467 37.6937 31.5993 36.7223 32.9216C35.1881 35.0035 27.1847 44.3232 28.171 50.4628C29.1575 56.6054 44.9466 128.201 44.9466 128.201C44.9466 128.201 45.2128 130.619 45.2551 132.762Z" fill="#B25E56"/>
<path d="M37.2818 17.2356L31.9532 19.8197C29.5022 16.2854 17.6618 9.02025 15.7827 11.3199C14.1667 13.2957 10.3512 19.0844 9.85797 21.726L5.67303 23.0696C6.25103 22.7669 11.8974 8.38484 14.7176 7.89776C17.5378 7.41048 32.2467 16.2615 32.2467 16.2615L37.2818 17.2356Z" fill="#B25E56"/>
<path d="M44.6664 136.861C43.7998 136.861 43.222 135.783 42.9586 135.292C42.9241 135.228 42.8978 135.159 42.8807 135.087C42.7326 134.467 28.0538 72.9495 25.6317 63.4599C25.0236 61.0768 24.259 58.5283 23.5193 56.0635C21.245 48.4846 18.8936 40.6475 20.4508 35.6291C21.4762 32.3248 24.5596 29.2504 27.2801 26.538C29.4995 24.3252 32.0146 21.8171 31.4759 20.675C30.3293 18.2458 21.3097 12.2368 17.4174 11.758C16.7743 11.6793 16.4966 11.79 16.4396 11.8598C13.9434 14.9103 10.4244 21.025 10.6496 22.2954C11.2684 22.6023 13.4269 22.5865 14.8766 22.5752C18.176 22.5507 20.0754 22.5927 20.6965 23.7462C20.8769 24.0811 21.2993 24.8654 19.2686 28.2212C18.1469 30.0741 16.6712 32.0462 15.3203 33.4968C13.3439 35.6199 11.9166 36.3797 10.8268 35.8897C8.29813 34.7516 0.610409 27.8933 0.0232325 22.3754C-0.457437 17.8535 6.62774 7.1302 11.3326 2.79179C13.3351 0.945526 14.9133 0.162838 16.1583 0.397836C19.9076 1.1071 36.4132 6.52424 40.8056 12.4596C45.1993 18.3969 39.0087 31.2529 37.4077 33.4257C37.2329 33.6631 36.9757 33.9926 36.6581 34.3994C34.3427 37.3646 28.193 45.2414 29.0105 50.329C29.9823 56.3749 45.6192 127.303 45.7769 128.018C45.7835 128.048 45.7882 128.078 45.7916 128.108C46.6941 136.282 45.5496 136.638 44.9993 136.809C44.8843 136.845 44.7729 136.861 44.6664 136.861ZM17.011 10.0296C17.2046 10.0296 17.4095 10.0428 17.6253 10.0693C21.8826 10.5929 31.5188 16.779 33.0146 19.9488C34.0656 22.1752 31.6012 24.6322 28.4816 27.7428C25.9011 30.3157 22.9763 33.2319 22.076 36.1332C20.6724 40.6556 22.9481 48.2398 25.1491 55.5743C25.8934 58.0558 26.6637 60.6217 27.2805 63.0392C29.5791 72.0451 42.8867 127.784 44.397 134.112C44.4529 132.683 44.3279 130.368 44.1057 128.34C43.3307 124.824 28.3059 56.665 27.3309 50.599C26.3956 44.7789 32.6475 36.7716 35.3172 33.3523C35.6227 32.9611 35.8702 32.6445 36.0382 32.4161C37.7579 30.082 43.0274 18.3218 39.4383 13.4717C35.651 8.35407 20.0914 2.87354 15.8422 2.06951C15.6044 2.02404 14.6625 2.03578 12.4861 4.04256C7.40531 8.72759 1.36556 18.9066 1.71518 22.1953C2.20887 26.8364 9.37793 33.3485 11.5025 34.3277C11.5792 34.3235 12.1245 34.2475 13.3861 33.0385C16.2232 30.3197 18.9717 25.7352 19.1446 24.5515C18.5192 24.2492 16.2678 24.2661 14.8888 24.2764C12.1766 24.2953 10.4646 24.2635 9.58476 23.6352C9.3489 23.4666 9.05094 23.1415 8.97218 22.5498C8.6121 19.8481 13.7714 12.4331 15.1223 10.782C15.5323 10.2819 16.1662 10.0296 17.011 10.0296Z" fill="#621A40"/>
<path d="M27.0987 82.3033C27.2816 81.8186 27.6067 81.3994 28.0246 81.0931C29.4367 80.0577 32.888 77.7652 34.4622 78.826C36.4677 80.1775 38.3681 86.0251 38.0025 87.6332C37.6371 89.2413 36.9061 90.2647 35.6634 90.9225C34.4208 91.5803 32.1549 92.9692 31.1314 92.3114C30.1438 91.6768 24.5959 88.932 27.0987 82.3033Z" fill="#FFCFA5"/>
<path d="M33.2949 78.9474C33.2949 78.9474 35.3373 86.388 34.9971 87.2146C34.6566 88.0413 31.1067 89.9379 30.3285 89.6948C29.5505 89.4517 27.8483 88.7708 27.8483 88.7708C27.8483 88.7708 29.7787 92.9378 31.5611 92.7995C33.3436 92.6612 36.9424 90.8619 37.5744 88.8682C38.2066 86.8742 37.393 79.8682 33.2949 78.9474Z" fill="#D77D75"/>
<path d="M31.7974 93.3316C31.3884 93.3316 31.0061 93.2424 30.6712 93.0273C30.6106 92.9882 30.5312 92.9408 30.4365 92.8841C25.9779 90.2075 24.5871 86.5466 26.3027 82.003C26.5426 81.3678 26.964 80.8161 27.5213 80.4073C29.8834 78.6755 33.0861 76.8725 34.9375 78.1208C37.2636 79.6883 39.2812 85.845 38.8322 87.8221C38.4115 89.6722 37.5312 90.8965 36.0617 91.6747C35.9245 91.7473 35.7746 91.829 35.6154 91.9157C34.4741 92.5376 33.017 93.3316 31.7974 93.3316ZM27.8946 82.6039C26.0268 87.5504 28.9505 90.0073 31.3122 91.4252C31.4249 91.4928 31.5195 91.5498 31.5914 91.5961C32.0776 91.9063 34.1269 90.7891 34.8011 90.4216C34.967 90.3313 35.123 90.2463 35.2656 90.171C36.2916 89.6276 36.8621 88.8124 37.1729 87.4449C37.4448 86.2488 35.7364 80.7106 33.9866 79.5318C33.2526 79.0356 31.0074 79.9617 28.5274 81.7796C28.2365 81.9928 28.0177 82.2779 27.8946 82.6039Z" fill="#621A40"/>
<path d="M88.93 70.0268L85.8161 62.9613L92.1056 69.6589L88.93 70.0268Z" fill="#621A40"/>
<path d="M91.1481 115.189L90.9445 114.55L83.0928 89.8895L94.325 113.588L91.1481 115.189Z" fill="#621A40"/>
<path d="M84.7337 78.3831C84.7337 78.3831 83.2386 76.8796 82.7037 74.5095C82.7037 74.5095 85.6445 77.106 86.7757 76.4463L84.7337 78.3831Z" fill="#621A40"/>
<path d="M56.9898 100.046L58.9072 97.6703L58.8425 100.737L56.9898 100.046Z" fill="#621A40"/>
<path d="M76.1 140.55C76.1 140.55 72.866 133.462 72.5813 128.502C72.5813 128.502 71.7531 137.911 73.2892 140.55H76.1Z" fill="#621A40"/>
<path d="M72.8619 44.7784L76.5762 50.5958L74.0809 43.577L72.8619 44.7784Z" fill="#621A40"/>
<path d="M78.8456 72.5444L81.3906 75.4461L79.3598 69.1727L78.8456 72.5444Z" fill="#621A40"/>
<path d="M35.3708 81.2949L34.0731 81.0063L36.2145 83.155L36.699 82.3029L35.3708 81.2949Z" fill="#621A40"/>
<path d="M36.9584 84.7669L35.1429 83.9889L37.4448 86.5824L36.9584 84.7669Z" fill="#621A40"/>
<path d="M70.5397 63.2497C70.871 63.2497 71.1395 62.9811 71.1395 62.6499C71.1395 62.3187 70.871 62.0501 70.5397 62.0501C70.2085 62.0501 69.94 62.3187 69.94 62.6499C69.94 62.9811 70.2085 63.2497 70.5397 63.2497Z" fill="white"/>
<path d="M56.7043 65.8758C57.0355 65.8758 57.304 65.6073 57.304 65.276C57.304 64.9448 57.0355 64.6763 56.7043 64.6763C56.373 64.6763 56.1045 64.9448 56.1045 65.276C56.1045 65.6073 56.373 65.8758 56.7043 65.8758Z" fill="white"/>
<path d="M29.5261 88.0415C30.1304 88.0415 30.6202 86.7071 30.6202 85.061C30.6202 83.4149 30.1304 82.0805 29.5261 82.0805C28.9219 82.0805 28.432 83.4149 28.432 85.061C28.432 86.7071 28.9219 88.0415 29.5261 88.0415Z" fill="#FFECC9"/>
<path d="M61.1981 57.923C62.4764 57.5654 63.4418 57.0226 63.3545 56.7105C63.2672 56.3984 62.1602 56.4353 60.882 56.7929C59.6038 57.1505 58.6383 57.6934 58.7256 58.0054C58.8129 58.3175 59.9199 58.2806 61.1981 57.923Z" fill="#FFECC9"/>
<path d="M83.0928 89.8895C83.0928 89.8895 93.4025 106.604 95.8664 107.617C98.3304 108.629 102.107 108.71 101.961 109.245C101.816 109.779 95.4261 113.73 93.986 114.108C92.5459 114.485 83.0928 89.8895 83.0928 89.8895Z" fill="#7F777F"/>
<path d="M28.3123 44.5048L26.1625 50.92L28.1127 49.9826L28.3123 44.5048Z" fill="#621A40"/>
<path d="M31.8083 24.195L37.2826 17.2352L32.2452 19.1802L31.8083 24.195Z" fill="#621A40"/>
<path d="M10.8172 24.0968L5.67261 23.0708L10.1451 20.7151L10.8172 24.0968Z" fill="#621A40"/>
<path d="M5.67261 23.6544C5.67261 23.6544 9.85477 25.405 11.6056 25.405C13.3565 25.405 17.1496 24.5297 17.1496 25.405C17.1496 26.2804 11.6056 34.2558 11.4112 33.186C11.2167 32.1163 11.4112 27.5448 11.4112 27.5448L5.67261 23.6544Z" fill="#B25E56"/>
<path d="M5.89713 42.3817L6.69412 43.1469C6.8813 43.3266 7.14512 43.4028 7.39933 43.3503L8.48147 43.1275C9.12158 42.9956 9.63512 43.6551 9.35039 44.2434L8.86908 45.238C8.75596 45.4715 8.76514 45.746 8.89341 45.9716L9.43982 46.9319C9.76297 47.4998 9.29447 48.192 8.64689 48.103L7.55236 47.9525C7.29517 47.9171 7.03712 48.0106 6.86231 48.2025L6.11783 49.0189C5.6775 49.5019 4.87432 49.2701 4.75884 48.6268L4.56376 47.5393C4.51787 47.2838 4.34925 47.0672 4.11297 46.9602L3.1066 46.5045C2.5111 46.235 2.48335 45.3996 3.05964 45.0909L4.03357 44.5693C4.26238 44.4468 4.41627 44.2194 4.44509 43.9614L4.5676 42.8632C4.63974 42.2135 5.42563 41.929 5.89713 42.3817Z" fill="#F6D476"/>
<path d="M44.2689 33.443L44.8418 33.9929C44.9763 34.122 45.1658 34.1766 45.3485 34.1391L46.1263 33.979C46.5863 33.8842 46.9553 34.3581 46.7506 34.7809L46.4046 35.4955C46.3233 35.6635 46.3299 35.8605 46.4221 36.0227L46.8149 36.7127C47.0471 37.1211 46.7105 37.6184 46.2452 37.5543L45.4587 37.4461C45.2738 37.4207 45.0884 37.488 44.9628 37.6256L44.4277 38.2124C44.1112 38.5594 43.5341 38.393 43.4513 37.9306L43.311 37.149C43.2782 36.9655 43.1569 36.8099 42.987 36.7328L42.2637 36.4052C41.8357 36.2114 41.8159 35.6112 42.2299 35.3894L42.9298 35.0146C43.0942 34.9265 43.2047 34.7632 43.2254 34.5779L43.3134 33.7888C43.3654 33.3222 43.9302 33.118 44.2689 33.443Z" fill="#F6D476"/>
<path d="M15.508 52.4726L15.6315 53.1308C15.6606 53.2854 15.7639 53.416 15.9077 53.4796L16.5201 53.7511C16.8823 53.9116 16.9032 54.4179 16.5555 54.6078L15.9675 54.9289C15.8294 55.0042 15.7372 55.1427 15.721 55.2994L15.652 55.9658C15.6113 56.36 15.1361 56.5363 14.8482 56.2641L14.3613 55.8042C14.2469 55.6962 14.0866 55.6514 13.933 55.6842L13.2779 55.8247C12.8905 55.9077 12.5759 55.5105 12.7458 55.1523L13.0327 54.547C13.1001 54.4049 13.0933 54.2386 13.0143 54.1024L12.6784 53.5229C12.4797 53.1801 12.7603 52.7582 13.1533 52.809L13.8175 52.895C13.9735 52.9152 14.1296 52.8572 14.2346 52.7402L14.6819 52.2416C14.947 51.9464 15.435 52.083 15.508 52.4726Z" fill="#F6D476"/>
<path d="M38.7137 40.5716L39.1493 41.0802C39.2518 41.1997 39.4063 41.2612 39.5628 41.2446L40.2289 41.1741C40.6229 41.1323 40.8938 41.5607 40.6872 41.8988L40.338 42.4703C40.256 42.6046 40.2454 42.7707 40.3094 42.9143L40.5824 43.526C40.7437 43.8878 40.4202 44.2778 40.0349 44.1858L39.3833 44.0304C39.2302 43.9939 39.0689 44.0351 38.9521 44.1403L38.4546 44.589C38.1603 44.8543 37.6894 44.6671 37.6578 44.2722L37.6042 43.6046C37.5916 43.4477 37.5029 43.307 37.3665 43.2285L36.7861 42.894C36.4427 42.6962 36.4753 42.1905 36.8412 42.0383L37.4597 41.7811C37.6051 41.7207 37.7112 41.5927 37.7438 41.4388L37.8826 40.7835C37.965 40.3957 38.4559 40.2704 38.7137 40.5716Z" fill="#F6D476"/>
<path d="M36.8073 113.22L35.7134 113.446C35.7791 113.423 36.2224 113.276 36.8073 113.22Z" fill="#D4CFC4"/>
</svg>
