<svg width="124" height="41" viewBox="0 0 124 41" fill="none" xmlns="http://www.w3.org/2000/svg">
<path d="M50.8698 6.6588L43.0938 40.6428H29.8458L25.9098 21.3468L21.9738 40.6428H8.72583L0.949829 6.6588H12.4218L15.4938 28.0668L20.1018 6.6588H31.7178L36.3258 28.0668L39.3978 6.6588H50.8698Z" fill="#0A457B"/>
<path d="M60.0671 11.4108C58.2111 11.4108 56.7231 10.9148 55.6031 9.9228C54.4831 8.9308 53.9231 7.6828 53.9231 6.1788C53.9231 4.6428 54.4831 3.3788 55.6031 2.3868C56.7231 1.3628 58.2111 0.8508 60.0671 0.8508C61.8911 0.8508 63.3631 1.3628 64.4831 2.3868C65.6031 3.3788 66.1631 4.6428 66.1631 6.1788C66.1631 7.6828 65.6031 8.9308 64.4831 9.9228C63.3631 10.9148 61.8911 11.4108 60.0671 11.4108ZM65.3471 13.5708V40.6428H54.6911V13.5708H65.3471Z" fill="#0A457B"/>
<path d="M81.9678 32.1468H95.5998V40.6428H70.1598V32.6268L83.5998 15.1068H70.1598V6.6588H95.5998V14.6748L81.9678 32.1468Z" fill="#0A457B"/>
<path d="M111.05 15.1548V19.3308H121.61V27.3468H111.05V32.1468H123.05V40.6428H100.394V6.6588H123.05V15.1548H111.05Z" fill="#0A457B"/>
</svg>
