<svg width="64" height="100" viewBox="0 0 64 100" fill="none" xmlns="http://www.w3.org/2000/svg">
<path d="M26.5306 82.6009L22.7095 99.3006H16.1995L14.2653 89.8185L12.3312 99.3006H5.82112L2 82.6009H7.63733L9.14691 93.1207L11.4113 82.6009H17.1194L19.3837 93.1207L20.8933 82.6009H26.5306Z" fill="#0A457B"/>
<path d="M31.0502 84.936C30.1381 84.936 29.4069 84.6923 28.8566 84.2048C28.3062 83.7173 28.031 83.1041 28.031 82.365C28.031 81.6102 28.3062 80.9891 28.8566 80.5016C29.4069 79.9984 30.1381 79.7468 31.0502 79.7468C31.9465 79.7468 32.6698 79.9984 33.2202 80.5016C33.7705 80.9891 34.0457 81.6102 34.0457 82.365C34.0457 83.1041 33.7705 83.7173 33.2202 84.2048C32.6698 84.6923 31.9465 84.936 31.0502 84.936ZM33.6447 85.9974V99.3006H28.4084V85.9974H33.6447Z" fill="#0A457B"/>
<path d="M41.8122 95.1257H48.5109V99.3006H36.0097V95.3615L42.6141 86.7522H36.0097V82.6009H48.5109V86.5399L41.8122 95.1257Z" fill="#0A457B"/>
<path d="M56.1032 86.7758V88.8279H61.2924V92.7669H56.1032V95.1257H62V99.3006H50.8669V82.6009H62V86.7758H56.1032Z" fill="#0A457B"/>
<path d="M31.5856 63.2706C31.5856 63.2706 24.2637 68.6124 18.6729 67.9883C13.0822 67.3642 11.2345 62.4749 11.2345 62.4749C11.2345 62.4749 10.698 60.1594 11.7022 58.5537C11.7022 58.5537 9.83921 60.019 10.1642 61.9913C8.05185 60.9342 3.65955 58.151 4.937 53.7792C6.3566 48.9167 11.6182 46.3203 14.0315 49.4027C14.103 49.5269 14.1648 49.6613 14.2139 49.8034C14.8511 51.6023 13.8309 54.6366 13.0575 55.1409C12.2238 55.6828 10.3649 55.2109 10.3302 53.9862C10.2958 52.785 12.0508 52.8263 12.1168 52.8277C12.0539 52.783 10.7318 51.8752 9.78585 53.3316C8.81928 54.8251 12.2661 56.9239 13.765 56.0597C15.2633 55.1941 14.9899 51.5076 14.9899 51.5076C14.9899 51.5076 19.9617 47.8381 22.2432 50.7921C24.4792 53.684 23.0412 57.0834 22.9808 57.2246L22.9785 57.2275C22.9785 57.2275 20.9295 58.9753 19.0356 58.0802C17.141 57.1872 17.63 54.19 18.6564 54.0548C19.6554 53.9234 19.9518 55.3441 19.9685 55.4216C19.9795 55.3182 20.212 52.804 18.8043 53.0508C17.3662 53.3027 16.0817 55.1956 17.0771 57.2174C18.0733 59.2371 20.2259 60.1952 21.9567 59.1067C23.6881 58.0199 22.9621 56.6628 25.0352 56.8734C25.2462 57.0314 25.4541 57.2746 25.6455 57.6329C26.2415 58.7536 26.1254 59.6063 25.9046 60.1379L24.6339 59.442L25.491 60.788C25.4912 60.788 27.1977 63.6289 31.5856 63.2706Z" fill="#0A457B" fill-opacity="0.5"/>
<path d="M44.3544 62.4159C44.3544 62.4159 49.6339 66.3755 53.7104 65.975C57.7868 65.5744 59.1792 62.0324 59.1792 62.0324C59.1792 62.0324 59.5921 60.3518 58.8764 59.173C58.8764 59.173 60.2188 60.2578 59.9632 61.6906C61.5113 60.9413 64.7359 58.9572 63.8479 55.7619C62.8612 52.208 59.0553 50.2669 57.2685 52.4879C57.2152 52.5776 57.1689 52.6749 57.1318 52.7779C56.6505 54.0814 57.3641 56.3005 57.9224 56.6751C58.5241 57.0776 59.8821 56.7519 59.9191 55.8606C59.9557 54.9863 58.6776 54.9996 58.6295 55C58.6757 54.9681 59.6471 54.3199 60.3218 55.3893C61.0112 56.486 58.4814 57.9808 57.3984 57.3373C56.3159 56.6927 56.5505 54.0111 56.5505 54.0111C56.5505 54.0111 52.9659 51.2917 51.2763 53.4204C49.6206 55.5045 50.6348 57.9933 50.6774 58.0967L50.679 58.0988C50.679 58.0988 52.1541 59.3911 53.5416 58.7576C54.9296 58.1257 54.6024 55.9388 53.8565 55.8305C53.1304 55.7253 52.9009 56.7567 52.888 56.813C52.881 56.7376 52.7358 54.9048 53.7584 55.0981C54.803 55.2953 55.72 56.6859 54.9758 58.1484C54.2311 59.6092 52.6546 60.2861 51.4049 59.4769C50.1548 58.6689 50.6965 57.6879 49.185 57.8213C49.0298 57.9343 48.8762 58.1094 48.7333 58.3684C48.2886 59.1786 48.3649 59.8005 48.5205 60.1897L49.4524 59.6953L48.8154 60.667C48.8156 60.667 47.5457 62.719 44.3544 62.4159Z" fill="#0A457B" fill-opacity="0.5"/>
<path d="M46.3385 57.2092C46.1085 57.2516 45.9739 57.2712 45.9739 57.2712C45.9739 57.2712 49.1905 66.1144 50.2132 67.5034C51.236 68.8922 47.8015 69.6231 44.8044 70.5005C41.8072 71.3781 37.7177 70.2085 36.291 70.5005C34.8627 70.7925 29.6219 71.9696 26.7972 70.8334C26.0392 70.5292 25.4961 70.2161 25.1147 69.9075C24.8333 69.6805 24.6427 69.4551 24.5187 69.2373C24.1873 68.6487 24.3568 68.1132 24.6292 67.7228C25.0967 67.0541 27.6475 55.7296 28.1877 51.2664C28.2088 51.1076 28.2254 50.9563 28.2391 50.8155C28.2618 50.5901 28.2769 50.3888 28.2845 50.2149C28.2845 50.2149 24.0935 52.9579 21.7061 53.8354C21.5518 53.8914 21.405 53.9412 21.2674 53.9806C20.4186 54.2272 19.6107 53.8989 18.9056 53.2649C17.7285 52.2074 16.8359 50.2996 16.5167 48.7911C16.0038 46.3794 15.7118 38.9962 17.4668 39.2156C18.8209 39.3851 25.0573 41.5743 27.4917 40.5969C28.2088 40.3094 28.5962 39.7466 28.4313 38.7768C28.4313 38.7768 23.2403 31.6568 23.6065 29.0773C23.6322 28.9002 23.6731 28.7081 23.7306 28.5009C24.4962 25.7019 28.0636 20.4777 31.5193 20.1373C34.0838 19.8846 35.6164 20.8544 36.3169 21.4778C36.6301 21.7561 36.7783 21.965 36.7783 21.965C36.7783 21.965 36.8873 22.0058 37.0825 22.083C38.5289 22.6549 44.735 25.2239 46.9243 28.0108C47.5536 28.8127 48.121 29.4859 48.6264 30.0578C50.1166 31.7492 51.0546 32.5678 51.3829 33.2213C51.6477 33.7494 50.8246 34.4499 49.9138 34.8764C49.3116 35.1579 48.6686 35.3198 48.2768 35.232C48.0605 35.1836 47.8017 35.1382 47.5204 35.0959H47.5189C46.7322 34.9793 45.785 34.8962 45.2343 34.9083C45.0815 34.9112 44.9575 34.9219 44.8773 34.9401C44.8773 34.9401 44.3205 37.1354 42.9559 38.547C42.8817 38.6257 42.803 38.7028 42.7214 38.777C42.7214 38.777 44.136 40.9011 45.8486 43.5942C48.4812 47.7352 51.8218 53.2242 51.8218 54.4194C51.8215 56.0942 47.617 56.9793 46.3385 57.2092Z" fill="#D4CFC4"/>
<path d="M27.4917 40.597C27.4085 40.7998 27.2421 40.9964 26.9713 41.1826C24.3599 42.9815 18.6001 41.3989 18.6001 41.3989L19.4156 43.7319C19.4156 43.7319 21.284 46.8728 21.7062 48.6565C22.1283 50.4403 21.6079 52.4495 21.4792 52.8716C21.3491 53.2922 20.5109 53.0107 20.5109 53.0107L18.9058 53.2649C17.7286 52.2075 16.836 50.2996 16.5168 48.7911C16.0039 46.3794 15.7119 38.9962 17.467 39.2156C18.8209 39.3852 25.0573 41.5744 27.4917 40.597Z" fill="white"/>
<path d="M51.3948 53.8338C51.2799 53.666 43.8724 42.9028 42.9087 41.0706C41.9358 39.2218 41.3519 37.0764 41.3519 37.0764L42.9556 38.547C42.8814 38.6256 42.8027 38.7028 42.7211 38.7769C42.7211 38.7769 44.1357 40.9011 45.8483 43.5942L51.3948 53.8338Z" fill="white"/>
<path d="M38.0627 24.7654C37.9326 24.5643 35.7872 21.3204 32.1123 21.1313C28.3194 20.9376 23.7306 28.5009 23.7306 28.5009C24.4962 25.7019 28.0637 20.4777 31.5193 20.1373C34.0838 19.8846 35.6164 20.8544 36.3169 21.4778L38.0627 24.7654Z" fill="white"/>
<path d="M30.4752 46.8213C30.4752 46.8213 28.162 61.5923 27.0969 64.5108C26.0333 67.4278 25.1572 69.9076 25.1572 69.9076H25.1149C24.8335 69.6806 24.6428 69.4552 24.5188 69.2374C24.1875 68.6488 24.3569 68.1133 24.6293 67.7229C25.0968 67.0542 27.6477 55.7297 28.1878 51.2665C28.684 50.3435 28.9973 49.7671 28.9973 49.7671L29.675 45.7094L30.4752 46.8213Z" fill="white"/>
<path d="M44.8044 70.5006C41.8072 71.3781 37.7177 70.2086 36.2909 70.5006C34.8627 70.7926 29.6219 71.9697 26.7972 70.8334C25.4794 70.3039 24.8076 69.7501 24.5187 69.2372C24.6836 68.983 24.7971 68.812 24.7971 68.812C24.7971 68.812 28.4811 69.8923 30.5555 69.5035C32.6312 69.1131 34.9248 56.5465 35.0747 57.4165C35.2244 58.285 36.2911 64.0721 36.2911 64.0721L36.645 68.2523C36.645 68.2523 40.087 69.2054 43.3293 68.2523C46.5412 67.3068 44.2598 53.4117 44.2174 53.1545L46.3386 57.2093C46.1086 57.2516 45.974 57.2713 45.974 57.2713C45.974 57.2713 49.1906 66.1145 50.2133 67.5034C51.236 68.8923 47.8015 69.623 44.8044 70.5006Z" fill="#7F777F"/>
<path d="M29.4539 48.6565L28.239 50.8155C28.2617 50.5901 28.2768 50.3888 28.2844 50.2149C28.2844 50.2149 24.0934 52.9579 21.706 53.8353C22.6743 51.8807 22.2052 49.593 22.2052 49.593C22.2052 49.593 27.313 47.3266 27.8289 46.2221C28.3448 45.1177 26.8636 40.8618 26.8636 40.8618C26.8636 40.8618 28.7563 40.8754 29.242 42.759C29.7294 44.6427 29.4539 48.6565 29.4539 48.6565Z" fill="#7F777F"/>
<path d="M40.6953 37.5445C40.6953 37.5445 41.4491 40.6578 41.5463 41.399C41.6435 42.1401 37.5586 49.5467 37.6558 50.4146C37.753 51.2826 37.7011 53.3061 37.6541 54.1909C37.6072 55.0759 33.3763 59.3554 32.3551 59.5012C31.3339 59.6471 27.7503 55.3605 27.7503 55.3605L28.6771 51.0633L30.7521 51.861L29.6805 52.547C29.6805 52.547 31.8192 52.6767 32.9626 51.8338C34.106 50.9909 35.3477 43.1127 35.3477 43.1127L39.4228 35.256L40.6953 37.5445Z" fill="#7F777F"/>
<path d="M38.2881 25.1193L39.6643 27.7385C39.6643 27.7385 41.1214 24.852 39.6643 23.3646C38.2071 21.8772 36.431 21.8125 36.431 21.8125L38.2881 25.1193Z" fill="#7F777F"/>
<path d="M45.234 34.9083C45.0812 34.9113 44.9572 34.922 44.877 34.9402C44.877 34.9402 44.3202 37.1355 42.9556 38.5471L41.3519 37.0765C42.8588 35.9992 42.9087 31.3015 42.9087 31.3015L45.1933 34.751C45.1933 34.751 45.2084 34.81 45.234 34.9083Z" fill="#7F777F"/>
<path d="M26.8635 36.5931C26.8635 36.5931 24.3959 30.5954 24.6553 29.365C24.9146 28.1344 28.0551 22.7364 30.5213 22.4932C32.9874 22.2501 37.5594 25.8302 38.945 29.7299C40.3306 33.6296 26.8635 36.5931 26.8635 36.5931Z" fill="#7F777F"/>
<path d="M49.9138 34.8765C49.3115 35.158 48.6685 35.3199 48.2768 35.2321C48.0604 35.1837 47.8016 35.1383 47.5203 35.096H47.5188L47.6416 34.8348L43.3899 31.303C43.4897 31.3302 46.8561 32.2683 47.431 32.1593C48.015 32.0489 50.4418 32.9067 50.6642 33.2895C50.7942 33.5118 50.3268 34.2774 49.9138 34.8765Z" fill="#7F777F"/>
<path d="M29.9897 71.7468C28.7682 71.7469 27.586 71.6095 26.6379 71.228C25.1221 70.6182 24.2282 69.8871 23.9811 69.055C23.8246 68.5283 23.9283 67.9835 24.2812 67.4794C24.7527 66.6737 27.313 55.3001 27.789 51.0361C26.3552 51.9388 23.1691 53.872 21.3857 54.3897C20.6817 54.5944 19.9691 54.4853 19.2688 54.0658C17.713 53.1342 16.4971 50.7517 16.1 48.8796C15.7065 47.0246 15.2615 40.6199 16.6117 39.1502C16.9318 38.8018 17.2821 38.7642 17.519 38.7936C17.8909 38.8402 18.56 39.016 19.407 39.2387C21.8835 39.8899 26.4933 41.102 27.7462 39.9555C27.9934 39.7291 28.0852 39.3973 28.0258 38.9434C27.2599 37.8844 22.8181 31.6093 23.1852 29.0175C23.549 26.4505 27.3913 20.117 31.4776 19.7144C34.9472 19.3725 36.6523 21.1391 37.0407 21.6099C38.0397 21.9945 44.8655 24.7019 47.2586 27.7485C48.5636 29.41 49.6031 30.5153 50.3622 31.3224C51.065 32.0698 51.5294 32.5636 51.7635 33.0317C51.8662 33.2371 51.9762 33.6614 51.559 34.1957C50.9328 34.9976 49.15 35.8616 48.1841 35.6473C47.2946 35.4495 45.8314 35.3141 45.2071 35.3324C45.0023 35.9961 44.4071 37.6543 43.2709 38.836C44.8233 41.178 52.247 52.4797 52.247 54.4198C52.247 56.3888 48.2038 57.3117 46.5499 57.6067C47.554 60.338 49.795 66.2188 50.556 67.2517C50.8823 67.6945 50.8507 68.0791 50.7668 68.324C50.4112 69.3599 48.3861 69.9301 46.0416 70.5903C45.6686 70.6954 45.2929 70.8011 44.924 70.9091C42.9811 71.4779 40.6679 71.2296 38.809 71.0301C37.7589 70.9174 36.8524 70.8203 36.3763 70.9177L36.1464 70.9652C34.9323 71.2176 32.3864 71.7468 29.9897 71.7468ZM28.2845 49.7888C28.357 49.7888 28.4296 49.8074 28.4949 49.8447C28.6337 49.9236 28.7165 50.0736 28.7094 50.2329C28.5637 53.5432 25.5983 67.0814 24.9782 67.9673C24.7766 68.2551 24.7155 68.5397 24.7966 68.8126C24.9132 69.2051 25.3823 69.8059 26.9556 70.4387C29.5249 71.4727 34.3782 70.4638 35.9728 70.1323L36.2055 70.0843C36.8107 69.9602 37.7325 70.0591 38.8994 70.1843C40.6835 70.3758 42.9041 70.614 44.6847 70.0927C45.0563 69.9839 45.4348 69.8774 45.8105 69.7715C47.5661 69.2772 49.751 68.662 49.9619 68.0478C49.9726 68.0165 50.0011 67.9333 49.8708 67.7563C48.8233 66.3346 45.7063 57.7794 45.574 57.4159C45.5304 57.296 45.543 57.1628 45.6082 57.0532C45.6734 56.9435 45.7845 56.8689 45.9106 56.8499C48.1884 56.5075 51.3961 55.5271 51.3961 54.4198C51.3961 53.0758 45.8578 44.2564 42.367 39.0129C42.2502 38.8376 42.2795 38.6032 42.4357 38.4618C43.8542 37.1784 44.4592 34.8581 44.4652 34.8348C44.5045 34.6806 44.6267 34.561 44.7818 34.5252C45.3758 34.388 47.4376 34.6101 48.3686 34.8168C48.9035 34.9364 50.3735 34.3315 50.8884 33.6721C50.9908 33.5412 51.0193 33.4455 51.0025 33.412C50.8242 33.0555 50.3704 32.573 49.7423 31.9051C48.9725 31.0864 47.918 29.9652 46.5895 28.2739C44.2053 25.2384 36.7042 22.3916 36.6287 22.3633C36.5491 22.3334 36.4803 22.2801 36.4312 22.2106C36.3737 22.1311 34.9582 20.2266 31.561 20.561C28.1849 20.8936 24.3886 26.5885 24.0276 29.1368C23.7478 31.1124 27.3593 36.5847 28.7745 38.5267C28.8132 38.5798 28.8391 38.6411 28.85 38.7057C28.9863 39.5052 28.808 40.1367 28.3205 40.583C26.849 41.9299 23.0034 41.064 19.1907 40.0614C18.4066 39.8552 17.7294 39.6772 17.4137 39.6377C17.3821 39.6338 17.329 39.627 17.2383 39.7257C16.2923 40.7555 16.4544 46.4503 16.9322 48.703C17.2823 50.3533 18.3734 52.5379 19.706 53.3358C20.1954 53.629 20.6812 53.7083 21.1487 53.5726C23.3277 52.9401 28.0049 49.8889 28.0518 49.8581C28.1222 49.8121 28.2032 49.7888 28.2845 49.7888Z" fill="#621A40"/>
<path d="M40.0159 39.252C40.0129 39.2898 40.0024 39.3458 39.9826 39.4169C39.5696 40.892 35.6148 49.1406 35.3016 49.5597C34.9718 49.9969 34.0912 49.6141 33.4089 49.5597C32.725 49.5053 30.5327 48.2979 29.929 46.4354C29.3269 44.57 28.4479 43.0903 28.065 41.83C27.6808 40.5683 27.0786 38.0582 27.242 37.559C27.351 37.2322 27.6944 36.577 27.9168 36.1655C28.0348 35.9492 28.1196 35.7994 28.1196 35.7994C28.1196 35.7994 28.1014 35.7464 28.0696 35.6495C28.0304 35.5391 27.9743 35.3681 27.9048 35.1518C27.643 34.3393 27.2057 32.8944 26.9637 31.6024C26.888 31.2075 26.8321 30.8262 26.8049 30.4813C26.7958 30.3754 26.7958 30.2649 26.8003 30.1469C26.826 29.6023 27.0015 28.9456 27.2769 28.2723C27.3979 27.9789 27.5371 27.6838 27.6914 27.3933C28.5735 25.7472 29.9533 24.263 31.1349 24.3947C33.0412 24.608 37.8191 27.6869 38.7783 30.4178C38.8116 30.5131 38.8403 30.6069 38.8645 30.7007C39.5771 33.4966 39.2488 35.7994 39.2488 35.7994C39.2488 35.7994 40.0719 38.4304 40.0159 39.252Z" fill="#FFCFA5"/>
<path d="M29.1334 33.7029C29.4201 33.6227 29.5544 33.2071 29.4334 32.7745C29.3124 32.342 28.9819 32.0564 28.6952 32.1366C28.4085 32.2168 28.2742 32.6325 28.3952 33.065C28.5162 33.4975 28.8467 33.7831 29.1334 33.7029Z" fill="#FFECC9"/>
<path d="M35.4644 31.7952C35.51 31.3484 35.3069 30.9616 35.0108 30.9314C34.7146 30.9012 34.4375 31.2388 34.3919 31.6856C34.3463 32.1324 34.5494 32.5191 34.8455 32.5494C35.1417 32.5796 35.4188 32.2419 35.4644 31.7952Z" fill="#FFECC9"/>
<path d="M29.274 30.8975C28.7278 30.7976 27.991 31.1153 27.5129 31.4481C27.3767 31.5434 27.1694 31.5995 26.9637 31.6025C26.888 31.2076 26.8321 30.8263 26.8049 30.4814C26.7958 30.3755 26.7958 30.265 26.8003 30.147C27.4403 29.4859 27.9986 29.6463 28.5629 29.7869C28.8382 29.855 29.1136 30.0835 29.2952 30.315C29.5478 30.6342 29.6219 30.961 29.274 30.8975Z" fill="#D77D75"/>
<path d="M35.3291 29.7569C34.6165 29.5375 33.5937 29.4346 32.9629 29.7569C32.5574 29.9657 32.5256 29.536 32.7192 29.0564C32.8539 28.716 33.102 28.3498 33.4076 28.1683C34.1444 27.7296 34.863 27.2635 36.2338 28.2773C36.3215 28.3423 36.3971 28.4059 36.4622 28.4679C37.4079 29.3756 35.9963 29.9627 35.3291 29.7569Z" fill="#D77D75"/>
<path d="M28.9608 35.2835L28.0696 35.6496C28.0304 35.5392 27.9743 35.3682 27.9048 35.1519C27.5628 34.0913 26.9228 31.9535 26.8049 30.4814C26.7564 29.8822 26.9411 29.0894 27.2769 28.2725C27.3979 27.979 27.5371 27.6839 27.6914 27.3934L27.9532 27.2239C27.938 27.2602 27.6854 27.8549 27.6506 29.7294C27.6158 31.6661 28.9608 35.2835 28.9608 35.2835Z" fill="#FFECC9"/>
<path d="M40.0159 39.252C40.0129 39.2897 40.0024 39.3458 39.9826 39.4168L27.9168 36.1655C28.0348 35.9492 28.1196 35.7993 28.1196 35.7993C28.1196 35.7993 28.0333 35.5527 27.9047 35.1518C28.6264 34.3696 29.8246 33.2833 31.0743 33.0684C33.0699 32.7249 36.0444 33.2893 36.0444 33.2893V28.7141C36.0444 28.7141 32.3059 26.6428 30.6856 26.6534C29.0652 26.6654 27.5658 28.5551 27.5658 28.5551L27.2768 28.2722C28.0802 26.3205 29.7444 24.2402 31.1349 24.3945C33.0412 24.6079 37.8191 27.6868 38.7783 30.4176C38.8116 30.5129 38.8403 30.6067 38.8645 30.7005C39.5771 33.4965 39.2488 35.7992 39.2488 35.7992C39.2488 35.7992 40.0718 38.4304 40.0159 39.252Z" fill="#D77D75"/>
<path d="M34.7752 50.19C34.499 50.19 34.2087 50.1313 33.9474 50.0784C33.7411 50.0365 33.5461 49.997 33.3743 49.9834C32.5574 49.9183 30.1966 48.64 29.5244 46.566C29.2111 45.5963 28.8131 44.7141 28.4618 43.9355C28.1449 43.233 27.8454 42.5696 27.6579 41.9535C27.6468 41.917 26.5664 38.2564 26.8385 37.4263C26.9806 36.9973 27.4482 36.132 27.6555 35.7572C27.4088 35.0281 26.5263 32.3212 26.3804 30.515C26.2589 29.0099 27.4442 26.4356 28.9169 25.006C29.6938 24.2519 30.4775 23.8954 31.1817 23.9725C33.1126 24.1884 38.1371 27.3096 39.1805 30.2766C39.2215 30.3973 39.2526 30.5004 39.2769 30.5961C39.9278 33.1485 39.7378 35.28 39.6819 35.7606C39.8434 36.2848 40.4956 38.4649 40.4403 39.2806C40.3767 40.2383 35.9713 49.3757 35.6418 49.8147C35.4249 50.1034 35.1104 50.19 34.7752 50.19ZM30.9894 24.8127C30.5678 24.8127 30.0471 25.0944 29.5094 25.6163C28.2362 26.8523 27.1275 29.1997 27.2283 30.4465C27.3859 32.3972 28.5094 35.6258 28.5209 35.6583C28.5613 35.7739 28.5499 35.9012 28.4898 36.0078C28.2976 36.3484 27.7715 37.3151 27.6464 37.6926C27.5617 38.0391 27.9849 40.1052 28.4718 41.7058C28.6434 42.2695 28.9186 42.8793 29.2372 43.5856C29.5976 44.3843 30.0061 45.2897 30.3336 46.3041C30.8789 47.9861 32.8999 49.0921 33.442 49.1354C33.6648 49.1531 33.8942 49.1996 34.1161 49.2445C34.3669 49.2953 34.8888 49.4004 34.9611 49.304C35.4309 48.6247 39.493 39.9787 39.5913 39.221C39.6267 38.6776 39.1509 36.9124 38.8421 35.9257C38.8231 35.8652 38.818 35.8013 38.8271 35.7385C38.8301 35.7166 39.1339 33.4786 38.4521 30.8058C38.433 30.7305 38.4088 30.6506 38.3762 30.5544C37.4797 28.0053 32.8123 25.0108 31.0875 24.8179C31.0555 24.8145 31.0227 24.8127 30.9894 24.8127Z" fill="#621A40"/>
<path d="M40.0159 39.252C39.9615 40.075 35.6298 49.121 35.3015 49.5597C34.9718 49.9969 34.0912 49.6141 33.4088 49.5597C33.3741 49.5567 33.3362 49.5506 33.2938 49.5416C32.5071 49.3811 30.5024 48.2041 29.929 46.4354C29.3269 44.57 28.4478 43.0903 28.065 41.83C27.6808 40.5683 27.0786 38.0582 27.242 37.559C27.4085 37.0597 28.1196 35.7994 28.1196 35.7994C28.1196 35.7994 30.0516 33.8673 31.4708 33.5844C31.6009 33.5586 31.728 33.5466 31.8475 33.5511C33.2743 33.6055 36.8358 34.2636 37.329 34.2636C37.8238 34.2636 38.7784 30.4178 38.7784 30.4178C38.8117 30.5131 38.8404 30.6069 38.8646 30.7007C39.5772 33.4966 39.2489 35.7994 39.2489 35.7994C39.2489 35.7994 40.0718 38.4304 40.0159 39.252Z" fill="#B18978"/>
<path d="M40.0159 39.252C39.9615 40.075 35.6298 49.1209 35.3015 49.5597C34.9718 49.9969 34.0912 49.6141 33.4089 49.5597C33.3741 49.5567 33.3362 49.5506 33.2938 49.5415L33.2772 49.2299L31.2362 47.3916L32.5918 48.0725L31.9655 44.7667L33.6176 47.8305L34.3227 44.7667V48.0725C34.4241 47.1905 37.5589 40.6817 37.7041 40.0916C37.8509 39.5031 37.17 37.5438 37.17 37.5438L36.645 38.5167C36.645 38.5167 36.9265 36.1579 36.645 35.5256C36.3636 34.8947 31.5192 33.9355 31.5192 33.9355L31.4707 33.5845C31.6008 33.5587 31.7279 33.5467 31.8474 33.5512C33.2742 33.6056 36.8357 34.2637 37.3289 34.2637C37.8237 34.2637 38.7783 30.4178 38.7783 30.4178C38.8116 30.5131 38.8403 30.607 38.8645 30.7008C39.5771 33.4967 39.2488 35.7994 39.2488 35.7994C39.2488 35.7994 40.0718 38.4304 40.0159 39.252Z" fill="#81535C"/>
<path d="M34.7799 50.1208C34.5146 50.1208 34.2298 50.0631 33.9615 50.0088C33.7621 49.9684 33.5559 49.9268 33.3799 49.9127C32.5768 49.8486 30.2544 48.5888 29.5917 46.5441C29.2774 45.5708 28.8784 44.6866 28.5264 43.9064C28.2103 43.2061 27.9119 42.5446 27.7257 41.9329C27.7146 41.8966 26.6402 38.2586 26.9057 37.4486C27.0804 36.9212 27.7808 35.6774 27.8104 35.6246C27.8263 35.5966 27.8458 35.571 27.8686 35.5482C28.1154 35.3012 30.327 33.1311 31.8612 33.1966C32.7309 33.2298 34.3351 33.4761 35.6243 33.674C36.2863 33.7756 36.9681 33.8803 37.2409 33.9042C37.521 33.5438 38.0666 31.8165 38.4351 30.3323C38.473 30.1795 38.607 30.0702 38.7643 30.0635C38.9194 30.057 39.0642 30.1548 39.1148 30.3039C39.1537 30.4184 39.1842 30.5197 39.208 30.6136C39.8634 33.1837 39.6625 35.3228 39.6096 35.7673C39.7625 36.2626 40.4245 38.4649 40.3694 39.2761C40.3061 40.2294 35.9136 49.3345 35.5849 49.7722C35.3846 50.0391 35.096 50.1208 34.7799 50.1208ZM28.404 36.0156C28.1944 36.3898 27.7009 37.3023 27.579 37.6704C27.4826 38.0042 27.9062 40.0902 28.4039 41.7265C28.5768 42.2945 28.8529 42.9064 29.1726 43.6147C29.5322 44.4118 29.9398 45.3152 30.2662 46.3258C30.8207 48.0366 32.8828 49.1618 33.4364 49.206C33.6549 49.2235 33.8822 49.2695 34.102 49.314C34.4464 49.3837 34.918 49.4789 35.0179 49.3466C35.4719 48.7047 39.5892 39.9335 39.6619 39.2281C39.7042 38.6077 39.1332 36.6189 38.9098 35.9047C38.894 35.8544 38.8897 35.8011 38.8971 35.7489C38.8999 35.7297 39.1263 34.0645 38.7546 31.8901C37.972 34.6182 37.5477 34.6182 37.3292 34.6182C37.1133 34.6182 36.5296 34.5302 35.5165 34.3747C34.2452 34.1796 32.6632 33.9369 31.8339 33.9051C30.8062 33.8677 29.0454 35.3833 28.404 36.0156Z" fill="#621A40"/>
<path d="M36.288 53.3966C36.3984 54.3286 32.4784 58.0566 30.8066 57.6723C29.7732 57.4362 28.5705 56.4013 27.7504 55.362V55.3605C27.2436 54.719 26.8835 54.076 26.7973 53.616C26.5704 52.4102 27.1604 49.8049 27.9003 49.7671C28.1786 49.7519 28.6507 50.0439 29.1302 50.4146C29.336 50.5719 29.5417 50.7444 29.7369 50.9139C30.2983 51.4011 30.7522 51.861 30.7522 51.861C30.7522 51.861 30.2892 51.7535 29.8308 51.6295C29.4541 51.5267 29.0819 51.4147 28.9699 51.3405C28.7233 51.1757 28.7233 52.6296 28.805 52.8489C28.8867 53.0608 29.3572 53.7719 30.1167 53.8324C30.1364 53.8339 30.1561 53.8353 30.1758 53.8353C30.9701 53.8626 32.6433 52.218 32.9627 51.8337C33.1457 51.6143 33.2652 50.8987 33.3348 50.3298C33.3862 49.9046 33.409 49.5597 33.409 49.5597H35.3017L35.3289 51.0666C35.3289 51.0666 36.1791 52.4646 36.288 53.3966Z" fill="#B18978"/>
<path d="M30.1636 54.1894C30.1636 54.1894 29.5145 54.2333 28.4948 53.8445C27.4766 53.4542 27.9305 50.4721 27.9305 50.4721L29.1302 50.4146C29.336 50.5719 29.5417 50.7444 29.7369 50.9139L29.8307 51.6295C29.454 51.5266 29.0818 51.4147 28.9698 51.3405C28.7232 51.1756 28.7232 52.6296 28.8049 52.8489C28.8866 53.0607 29.3571 53.7718 30.1166 53.8323L30.1636 54.1894Z" fill="#81535C"/>
<path d="M36.288 53.3966C36.3984 54.3286 32.4784 58.0566 30.8066 57.6723C29.7732 57.4362 28.5705 56.4013 27.7504 55.362V55.3605C27.4296 54.4148 27.168 53.6342 27.1452 53.5509C27.0832 53.327 30.215 56.1941 30.215 56.1941C30.215 56.1941 31.625 56.2425 32.5919 55.9504C33.5587 55.66 33.9747 54.1031 33.9747 54.1031L34.3227 53.1302L33.2984 54.3951L33.9747 52.109L33.4074 51.7323L33.3347 50.3298C33.3861 49.9046 33.4089 49.5597 33.4089 49.5597H35.3016L35.3288 51.0666C35.3288 51.0666 36.1791 52.4646 36.288 53.3966Z" fill="#81535C"/>
<path d="M31.0626 58.0544C30.9467 58.0544 30.8345 58.0428 30.7268 58.0181C28.8961 57.598 26.6905 54.969 26.4483 53.6813C26.2557 52.6575 26.5876 50.6256 27.2355 49.8016C27.4287 49.5562 27.6461 49.4253 27.8822 49.413C27.8926 49.4125 27.9032 49.4122 27.9139 49.4122C28.7602 49.4122 30.4885 51.0918 31.0035 51.6119C31.1146 51.7242 31.1379 51.8964 31.0609 52.0341C30.984 52.172 30.8247 52.2423 30.6712 52.2067C30.3147 52.1239 29.5911 51.9491 29.1308 51.7904C29.0991 52.1072 29.1054 52.6027 29.1406 52.7343C29.173 52.8196 29.5558 53.4591 30.1879 53.4809C30.1915 53.4809 30.1953 53.4811 30.1989 53.4811C30.7365 53.4812 32.2199 52.1716 32.6904 51.6073C32.8217 51.4443 32.992 50.4762 33.0545 49.536C33.0668 49.3498 33.2216 49.2051 33.4082 49.2051H35.3014C35.4947 49.2051 35.6523 49.3599 35.656 49.553L35.6819 50.9663C35.8726 51.2931 36.5381 52.4839 36.6406 53.3552C36.7398 54.1991 35.0512 55.7607 34.7116 56.0652C34.1625 56.5575 32.3834 58.054 31.0626 58.0544ZM27.9278 50.1207C27.9249 50.1207 27.922 50.1207 27.9192 50.1209C27.54 50.2199 26.9212 52.3604 27.1451 53.5502C27.3456 54.6169 29.3464 56.9739 30.8855 57.327C31.4599 57.4593 32.6274 56.8854 33.8579 55.8653C35.2401 54.7193 35.9457 53.6745 35.9362 53.4358C35.8372 52.5944 35.0342 51.2637 35.0261 51.2505C34.9935 51.1969 34.9758 51.1355 34.9745 51.073L34.9534 49.9139H33.736C33.6784 50.5622 33.5369 51.6986 33.235 52.0609C33.2169 52.0828 31.268 54.2318 30.1636 54.1893C29.2283 54.157 28.6112 53.3403 28.4733 52.9727C28.3975 52.7704 28.2887 51.3715 28.6772 51.0633C28.8201 50.9497 29.0124 50.9429 29.1664 51.0457C29.2121 51.0727 29.328 51.1141 29.487 51.1631C28.7728 50.546 28.1522 50.1207 27.9278 50.1207Z" fill="#621A40"/>
<path d="M33.4082 49.5594C33.4082 49.5594 34.7592 49.0193 35.4279 49.3439C36.0966 49.6686 35.3291 51.0665 35.3291 51.0665C35.3291 51.0665 33.9373 51.3406 33.2216 51.0665C32.5057 50.7924 33.4082 49.5594 33.4082 49.5594Z" fill="#0A457B"/>
<path d="M34.0978 51.5434C33.7446 51.5434 33.3818 51.5074 33.0947 51.3975C32.8563 51.3062 32.6942 51.1355 32.6258 50.9039C32.4506 50.3098 33.0086 49.5053 33.1221 49.3501C33.1614 49.2965 33.2149 49.255 33.2766 49.2303C33.4299 49.1693 34.7958 48.6432 35.5827 49.0251C35.7884 49.1249 35.9346 49.2957 36.0058 49.5187C36.2075 50.1522 35.7363 51.0612 35.6399 51.237C35.5893 51.3291 35.5007 51.3939 35.3977 51.4143C35.3006 51.4334 34.7143 51.5434 34.0978 51.5434ZM33.6365 49.8517C33.4353 50.1534 33.2603 50.5498 33.3059 50.7034C33.3083 50.7122 33.3111 50.7211 33.3483 50.7354C33.7926 50.9057 34.6446 50.8197 35.093 50.7483C35.2476 50.4196 35.4002 49.9527 35.3303 49.7338C35.3165 49.6909 35.2995 49.6759 35.2731 49.663C34.9158 49.4894 34.1205 49.6748 33.6365 49.8517Z" fill="#621A40"/>
<path d="M35.3288 29.0275C34.6162 28.8081 33.5934 28.7052 32.9626 29.0275C32.5571 29.2363 32.5253 28.8066 32.7189 28.327C32.8536 27.9866 33.1017 27.6204 33.4074 27.4389C34.1442 27.0001 34.8628 26.5341 36.2336 27.5478C36.3213 27.6129 36.3969 27.6764 36.462 27.7384C37.4076 28.6462 35.996 29.2332 35.3288 29.0275Z" fill="#B18978"/>
<path d="M35.3288 29.0275C34.6162 28.8081 33.5934 28.7052 32.9626 29.0275C32.5571 29.2363 32.5253 28.8066 32.7189 28.327C33.1819 28.1197 34.1275 27.7415 34.5935 27.867C35.2244 28.0365 36.061 28.1575 36.3243 27.8413C36.3576 27.8019 36.4044 27.7671 36.4619 27.7384C37.4076 28.6462 35.996 29.2332 35.3288 29.0275Z" fill="#81535C"/>
<path d="M32.78 29.3649C32.5915 29.3649 32.4592 29.2592 32.3918 29.1376C32.1312 28.6666 32.6195 27.5769 33.2625 27.1945L33.3072 27.1678C34.0576 26.7207 34.9078 26.214 36.4023 27.3199C37.2005 27.9104 37.1052 28.4231 36.9773 28.6761C36.6975 29.23 35.8012 29.47 35.2457 29.299C34.5863 29.0962 33.6311 29.0037 33.092 29.2802C32.9756 29.3401 32.8712 29.3649 32.78 29.3649ZM33.9968 28.5392C34.4995 28.5392 35.0127 28.6339 35.4125 28.757C35.7508 28.8607 36.3439 28.6721 36.4711 28.4204C36.5853 28.1942 36.2251 27.8942 36.0651 27.7758C34.8737 26.8941 34.3106 27.23 33.5977 27.655L33.5525 27.6819C33.1792 27.9039 32.9245 28.4705 32.8883 28.7487C33.2105 28.5983 33.6002 28.5392 33.9968 28.5392Z" fill="#621A40"/>
<path d="M29.0833 30.3135C28.5371 30.2136 27.8003 30.5313 27.3222 30.8642C27.0559 31.0503 26.5278 31.0836 26.2464 30.8853C26.021 30.731 25.9514 30.4299 26.2964 29.9442C27.0725 28.8504 27.7185 29.0395 28.3722 29.2029C28.6475 29.2709 28.923 29.4994 29.1045 29.7309C29.3571 30.0502 29.4313 30.377 29.0833 30.3135Z" fill="#B18978"/>
<path d="M29.1045 29.731C29.3571 30.0502 29.4313 30.377 29.0833 30.3135C28.5371 30.2136 27.8003 30.5313 27.3222 30.8642C27.0559 31.0503 26.5279 31.0836 26.2464 30.8853C26.5293 30.6553 26.9621 30.3165 27.3706 30.0638C27.879 29.7491 28.7141 29.7234 29.1045 29.731Z" fill="#81535C"/>
<path d="M26.7473 31.302C26.455 31.302 26.1626 31.2182 25.975 31.0291C25.8015 30.854 25.5822 30.459 26.0645 29.7802C26.9383 28.5503 27.7495 28.7542 28.4012 28.9177L28.4407 28.9276C29.0429 29.0782 29.6889 29.8371 29.5927 30.2808C29.5528 30.4648 29.3821 30.6567 29.0318 30.5924C28.5832 30.5102 27.9155 30.7964 27.4849 31.0971C27.2976 31.2278 27.0225 31.302 26.7473 31.302ZM27.6341 29.3597C27.2796 29.3597 26.943 29.5229 26.527 30.1086C26.4618 30.2004 26.2583 30.5092 26.3779 30.6297C26.516 30.769 26.962 30.7701 27.1604 30.6319C27.6193 30.3117 28.3436 29.979 28.9611 30.014C28.8341 29.8171 28.5658 29.5435 28.3031 29.4779L28.2632 29.4678C28.0366 29.4109 27.8325 29.3597 27.6341 29.3597Z" fill="#621A40"/>
<path d="M29.0778 33.4107C29.3645 33.3305 29.4988 32.9149 29.3778 32.4824C29.2568 32.0499 28.9263 31.7643 28.6396 31.8445C28.353 31.9247 28.2186 32.3403 28.3396 32.7728C28.4606 33.2053 28.7911 33.4909 29.0778 33.4107Z" fill="#621A40"/>
<path d="M35.4087 31.5033C35.4543 31.0566 35.2512 30.6698 34.9551 30.6396C34.6589 30.6093 34.3819 30.947 34.3362 31.3938C34.2906 31.8406 34.4937 32.2273 34.7898 32.2576C35.086 32.2878 35.3631 31.9501 35.4087 31.5033Z" fill="#621A40"/>
<path d="M33.6166 37.0772C33.8225 36.9697 34.005 36.8905 34.1794 36.8141C34.3532 36.7385 34.5143 36.666 34.6663 36.5901C34.8186 36.513 34.9547 36.4277 35.0971 36.3266C35.2463 36.2282 35.3681 36.0929 35.5482 35.9357C35.5961 36.1584 35.5649 36.4078 35.4395 36.6123C35.3197 36.818 35.1343 36.991 34.9239 37.0952C34.7135 37.2 34.4853 37.2506 34.2619 37.2508C34.0388 37.2476 33.8152 37.2047 33.6166 37.0772Z" fill="#621A40"/>
<path d="M18.0668 39.6976C18.0668 39.6976 19.7094 44.4438 20.758 46.7512C21.8065 49.0586 21.5613 52.0547 20.9677 52.6402C20.3742 53.2256 18.1516 51.2636 17.852 48.9901C17.5523 46.7168 16.634 41.8391 18.0668 39.6976Z" fill="#621A40"/>
<path d="M21.8543 67.2659C21.8543 67.2659 19.3277 56.6768 16.9826 46.9152C16.2958 44.0587 15.6255 41.2719 15.0385 38.8436C14.1973 35.3668 13.527 32.6223 13.2275 31.4468C13.111 30.9929 12.9854 30.5314 12.8538 30.0639H12.8522C11.5859 25.5885 9.73855 20.6412 10.6313 17.7621C11.6192 14.5818 16.8994 11.6226 16.1233 9.97788C16.1143 9.95824 16.1037 9.9385 16.0931 9.91887C16.0613 9.85985 16.0235 9.79784 15.9766 9.73125C14.7511 7.96406 8.8309 4.33151 7.89133 5.48132C7.08335 6.46923 5.17561 9.3636 4.92898 10.6844C4.87295 10.9779 4.90027 11.1927 5.03943 11.2926C5.80803 11.8418 9.59043 11.1836 9.97323 11.8962C10.3575 12.6088 6.684 17.8723 5.58872 17.3777C4.49185 16.8844 0.709458 13.5409 0.435613 10.9642C0.432624 10.9339 0.42953 10.9022 0.42953 10.8689C0.299437 8.18946 5.99565 0.0588437 8.0004 0.438556C10.0293 0.821362 18.0329 3.5628 20.0616 6.30435C20.1675 6.4466 20.2583 6.59932 20.337 6.75972C20.8196 7.728 20.8438 8.99285 20.635 10.2879C20.213 12.8948 18.8467 15.6211 18.361 16.2822C17.5939 17.3231 13.5922 21.983 14.0854 25.0528C14.5787 28.1241 22.4732 63.9221 22.4732 63.9221C22.4732 63.9221 22.6064 65.131 22.6275 66.2021C22.6517 67.4504 22.5232 68.5156 21.8543 67.2659Z" fill="#D4A36C"/>
<path d="M20.337 6.75972C20.1796 6.85502 19.9769 6.80358 19.7197 6.55695C17.7014 4.62638 11.1685 2.71704 11.1685 2.71704L11.5316 3.76098L8.12131 1.80938C6.49649 2.27234 0.857693 10.9188 0.857693 10.9188L0.42953 10.8689C0.299437 8.18946 5.99565 0.0588437 8.0004 0.438556C10.0293 0.821362 18.0329 3.5628 20.0616 6.30435C20.1675 6.4466 20.2582 6.59943 20.337 6.75972Z" fill="#E7D08D"/>
<path d="M18.6409 8.43918L15.2534 14.5833C15.2534 14.5833 12.1412 17.1765 11.9461 18.343C11.7524 19.5109 11.9461 22.7532 11.9461 22.7532L11.5285 21.8121L12.8539 30.0638H12.8523C11.5859 25.5884 9.73857 20.6411 10.6313 17.762C11.6192 14.5817 16.8994 11.6224 16.1233 9.97777C16.1143 9.95813 16.1037 9.93839 16.0931 9.91875L18.6409 8.43918Z" fill="#E7D08D"/>
<path d="M22.6275 66.2022C22.4686 67.2597 22.3219 67.5896 22.1979 66.877C21.4278 62.4365 17.7816 46.614 17.7816 46.614L16.9828 46.915L16.4033 47.1329L14.7632 39.0975L15.0385 38.8433L15.9039 38.0445L13.0808 25.2814L15.2535 18.1493L13.6195 18.4079L16.5501 16.2035L20.3023 9.47394L20.6352 10.2879C20.2131 12.8948 18.8468 15.621 18.3612 16.2822C17.5941 17.3231 13.5924 21.983 14.0855 25.0528C14.5788 28.1241 22.4733 63.9221 22.4733 63.9221C22.4733 63.9221 22.6064 65.1311 22.6275 66.2022Z" fill="#B25E56"/>
<path d="M18.6409 8.43918L15.9766 9.73125C14.7511 7.96406 8.83091 4.33151 7.89134 5.48131C7.08336 6.46923 5.17562 9.36359 4.92899 10.6844L2.83652 11.3562C3.12552 11.2048 5.9487 4.0138 7.3588 3.77026C8.7689 3.52662 16.1233 7.95211 16.1233 7.95211L18.6409 8.43918Z" fill="#B25E56"/>
<path d="M22.3332 68.2518C21.8999 68.2518 21.611 67.7129 21.4793 67.4674C21.462 67.4352 21.4489 67.4007 21.4404 67.3651C21.3663 67.0549 14.0269 36.2961 12.8158 31.5513C12.5118 30.3598 12.1295 29.0856 11.7596 27.8531C10.6225 24.0637 9.44678 20.1451 10.2254 17.6359C10.7381 15.9838 12.2798 14.4466 13.64 13.0904C14.7497 11.984 16.0073 10.7299 15.738 10.1589C15.1647 8.94429 10.6549 5.93978 8.7087 5.70041C8.38715 5.66103 8.24831 5.71642 8.21982 5.75132C6.97172 7.27657 5.21222 10.3339 5.32481 10.9691C5.63419 11.1226 6.71346 11.1147 7.4383 11.109C9.08799 11.0967 10.0377 11.1178 10.3483 11.6945C10.4384 11.8619 10.6496 12.2541 9.63429 13.932C9.07347 14.8584 8.33561 15.8445 7.66017 16.5698C6.67194 17.6313 5.9583 18.0113 5.41339 17.7662C4.14907 17.1972 0.305205 13.7681 0.0116162 11.0091C-0.228719 8.74814 3.31387 3.38649 5.66631 1.21729C6.66757 0.294159 7.45666 -0.0971853 8.07916 0.020314C9.95381 0.374947 18.2066 3.08351 20.4028 6.0512C22.5997 9.01985 19.5043 15.4478 18.7038 16.5343C18.6164 16.6529 18.4878 16.8177 18.329 17.0211C17.1713 18.5037 14.0965 22.4421 14.5052 24.9859C14.9911 28.0088 22.8096 63.4727 22.8885 63.8305C22.8918 63.8454 22.8941 63.8604 22.8958 63.8755C23.347 67.9626 22.7748 68.1402 22.4997 68.2256C22.4421 68.2437 22.3864 68.2518 22.3332 68.2518ZM8.50551 4.83619C8.6023 4.83619 8.70475 4.8428 8.81265 4.85604C10.9413 5.11782 15.7594 8.21091 16.5073 9.79581C17.0328 10.909 15.8006 12.1375 14.2408 13.6928C12.9505 14.9792 11.4881 16.4374 11.038 17.888C10.3362 20.1492 11.474 23.9413 12.5745 27.6085C12.9467 28.8493 13.3318 30.1323 13.6403 31.341C14.7895 35.844 21.4434 63.7136 22.1985 66.8776C22.2265 66.1631 22.1639 65.0054 22.0528 63.9914C21.6653 62.2333 14.1529 28.1539 13.6654 25.1209C13.1978 22.2108 16.3238 18.2072 17.6586 16.4975C17.8113 16.3019 17.9351 16.1437 18.0191 16.0295C18.879 14.8624 21.5137 8.98228 19.7192 6.55727C17.8255 3.99843 10.0457 1.25817 7.9211 0.856149C7.80222 0.833418 7.33126 0.839288 6.24303 1.84267C3.70265 4.18519 0.682782 9.2747 0.85759 10.919C1.10443 13.2396 4.68897 16.4956 5.75126 16.9853C5.78958 16.9831 6.06225 16.9451 6.69307 16.3407C8.1116 14.9813 9.48584 12.689 9.57229 12.0971C9.25959 11.946 8.13391 11.9544 7.44438 11.9596C6.08829 11.9691 5.23228 11.9532 4.79238 11.639C4.67445 11.5547 4.52547 11.3921 4.48609 11.0963C4.30605 9.74544 6.8857 6.03797 7.56114 5.21238C7.76615 4.96233 8.08311 4.83619 8.50551 4.83619Z" fill="#621A40"/>
<path d="M13.5493 40.9731C13.6408 40.7307 13.8033 40.5211 14.0123 40.3679C14.7184 39.8502 16.444 38.704 17.2311 39.2344C18.2338 39.9101 19.1841 42.8339 19.0013 43.638C18.8186 44.442 18.453 44.9537 17.8317 45.2826C17.2104 45.6116 16.0774 46.306 15.5657 45.9771C15.0719 45.6598 12.2979 44.2874 13.5493 40.9731Z" fill="#FFCFA5"/>
<path d="M16.6474 39.2951C16.6474 39.2951 17.6686 43.0154 17.4985 43.4287C17.3283 43.842 15.5533 44.7904 15.1642 44.6688C14.7752 44.5473 13.9241 44.2068 13.9241 44.2068C13.9241 44.2068 14.8893 46.2903 15.7805 46.2212C16.6718 46.152 18.4712 45.2524 18.7872 44.2555C19.1033 43.2585 18.6965 39.7555 16.6474 39.2951Z" fill="#D77D75"/>
<path d="M15.8987 46.4872C15.6942 46.4872 15.5031 46.4426 15.3356 46.335C15.3053 46.3155 15.2656 46.2918 15.2182 46.2634C12.989 44.9252 12.2936 43.0947 13.1514 40.8229C13.2713 40.5053 13.482 40.2295 13.7607 40.0251C14.9417 39.1592 16.5431 38.2577 17.4688 38.8818C18.6318 39.6655 19.6406 42.7439 19.4161 43.7325C19.2058 44.6575 18.7656 45.2697 18.0309 45.6588C17.9622 45.695 17.8873 45.7359 17.8077 45.7792C17.2371 46.0902 16.5085 46.4872 15.8987 46.4872ZM13.9473 41.1233C13.0134 43.5966 14.4753 44.8251 15.6561 45.534C15.7125 45.5678 15.7597 45.5963 15.7957 45.6195C16.0388 45.7745 17.0634 45.216 17.4006 45.0322C17.4835 44.9871 17.5615 44.9446 17.6328 44.9069C18.1458 44.6352 18.4311 44.2276 18.5865 43.5439C18.7224 42.9458 17.8682 40.1767 16.9933 39.5873C16.6263 39.3392 15.5037 39.8023 14.2637 40.7112C14.1183 40.8178 14.0089 40.9604 13.9473 41.1233Z" fill="#621A40"/>
<path d="M44.465 34.8348L42.9081 31.3021L46.0528 34.6508L44.465 34.8348Z" fill="#621A40"/>
<path d="M45.5741 57.4159L45.4722 57.0964L41.5464 44.7661L47.1625 56.6154L45.5741 57.4159Z" fill="#621A40"/>
<path d="M42.3669 39.0129C42.3669 39.0129 41.6193 38.2612 41.3519 37.0762C41.3519 37.0762 42.8223 38.3744 43.3879 38.0446L42.3669 39.0129Z" fill="#621A40"/>
<path d="M28.4949 49.8447L29.4536 48.6566L29.4212 50.19L28.4949 49.8447Z" fill="#621A40"/>
<path d="M38.05 70.0964C38.05 70.0964 36.433 66.5526 36.2906 64.0724C36.2906 64.0724 35.8766 68.7771 36.6446 70.0964H38.05Z" fill="#621A40"/>
<path d="M36.431 22.2106L38.2881 25.1193L37.0405 21.6099L36.431 22.2106Z" fill="#621A40"/>
<path d="M39.4228 36.0936L40.6953 37.5444L39.6799 34.4077L39.4228 36.0936Z" fill="#621A40"/>
<path d="M17.6854 40.4688L17.0365 40.3245L18.1073 41.3989L18.3495 40.9728L17.6854 40.4688Z" fill="#621A40"/>
<path d="M18.4792 42.2049L17.5714 41.8159L18.7224 43.1126L18.4792 42.2049Z" fill="#621A40"/>
<path d="M35.2699 31.4462C35.4355 31.4462 35.5697 31.312 35.5697 31.1464C35.5697 30.9807 35.4355 30.8465 35.2699 30.8465C35.1042 30.8465 34.97 30.9807 34.97 31.1464C34.97 31.312 35.1042 31.4462 35.2699 31.4462Z" fill="white"/>
<path d="M28.3521 32.7593C28.5178 32.7593 28.652 32.6251 28.652 32.4594C28.652 32.2938 28.5178 32.1595 28.3521 32.1595C28.1865 32.1595 28.0522 32.2938 28.0522 32.4594C28.0522 32.6251 28.1865 32.7593 28.3521 32.7593Z" fill="white"/>
<path d="M14.7631 43.8421C15.0652 43.8421 15.3101 43.1749 15.3101 42.3519C15.3101 41.5288 15.0652 40.8616 14.7631 40.8616C14.4609 40.8616 14.216 41.5288 14.216 42.3519C14.216 43.1749 14.4609 43.8421 14.7631 43.8421Z" fill="#FFECC9"/>
<path d="M30.5991 28.7829C31.2382 28.6041 31.7209 28.3327 31.6772 28.1767C31.6336 28.0206 31.0801 28.0391 30.441 28.2179C29.8019 28.3967 29.3192 28.6681 29.3628 28.8241C29.4065 28.9801 29.96 28.9617 30.5991 28.7829Z" fill="#FFECC9"/>
<path d="M41.5464 44.7661C41.5464 44.7661 46.7012 53.1236 47.9332 53.6297C49.1652 54.1356 51.0537 54.1762 50.9807 54.4436C50.9078 54.7111 47.7131 56.6866 46.993 56.8752C46.273 57.0637 41.5464 44.7661 41.5464 44.7661Z" fill="#7F777F"/>
<path d="M14.1562 22.0738L13.0813 25.2814L14.0564 24.8127L14.1562 22.0738Z" fill="#621A40"/>
<path d="M15.9041 11.9189L18.6413 8.43896L16.1226 9.41151L15.9041 11.9189Z" fill="#621A40"/>
<path d="M5.40859 11.8698L2.8363 11.3568L5.07253 10.179L5.40859 11.8698Z" fill="#621A40"/>
<path d="M2.8363 11.6486C2.8363 11.6486 4.92739 12.5239 5.80282 12.5239C6.67825 12.5239 8.57478 12.0863 8.57478 12.5239C8.57478 12.9616 5.80282 16.9493 5.70559 16.4144C5.60837 15.8795 5.70559 13.5938 5.70559 13.5938L2.8363 11.6486Z" fill="#B25E56"/>
<path d="M2.94856 21.0123L3.34706 21.3949C3.44065 21.4847 3.57256 21.5228 3.69966 21.4966L4.24074 21.3851C4.56079 21.3192 4.81756 21.649 4.6752 21.9431L4.43454 22.4404C4.37798 22.5571 4.38257 22.6944 4.44671 22.8072L4.71991 23.2873C4.88149 23.5713 4.64724 23.9174 4.32344 23.8729L3.77618 23.7977C3.64758 23.78 3.51856 23.8267 3.43115 23.9226L3.05891 24.3308C2.83875 24.5724 2.43716 24.4565 2.37942 24.1348L2.28188 23.5911C2.25893 23.4633 2.17463 23.355 2.05649 23.3015L1.5533 23.0737C1.25555 22.9389 1.24167 22.5212 1.52982 22.3669L2.01679 22.106C2.13119 22.0448 2.20814 21.9311 2.22254 21.8021L2.2838 21.253C2.31987 20.9282 2.71282 20.7859 2.94856 21.0123Z" fill="#F6D476"/>
<path d="M22.1345 16.5429L22.4209 16.8178C22.4881 16.8824 22.5829 16.9097 22.6743 16.8909L23.0632 16.8109C23.2931 16.7635 23.4777 17.0004 23.3753 17.2118L23.2023 17.5691C23.1617 17.6531 23.165 17.7516 23.2111 17.8327L23.4074 18.1778C23.5235 18.3819 23.3553 18.6306 23.1226 18.5986L22.7293 18.5445C22.6369 18.5318 22.5442 18.5654 22.4814 18.6342L22.2139 18.9276C22.0556 19.1011 21.767 19.0179 21.7256 18.7867L21.6555 18.3959C21.6391 18.3041 21.5785 18.2263 21.4935 18.1878L21.1318 18.024C20.9179 17.9271 20.9079 17.627 21.115 17.5161L21.4649 17.3287C21.5471 17.2846 21.6024 17.203 21.6127 17.1103L21.6567 16.7158C21.6827 16.4825 21.9651 16.3804 22.1345 16.5429Z" fill="#F6D476"/>
<path d="M7.75398 26.0577L7.81577 26.3868C7.83028 26.4641 7.88193 26.5294 7.95386 26.5612L8.26005 26.6969C8.44115 26.7772 8.45161 27.0303 8.27776 27.1253L7.98375 27.2858C7.9147 27.3235 7.86859 27.3928 7.86048 27.4711L7.82601 27.8043C7.80563 28.0014 7.56807 28.0895 7.4241 27.9535L7.18067 27.7235C7.12347 27.6695 7.04332 27.6471 6.96649 27.6635L6.63896 27.7337C6.44526 27.7752 6.28796 27.5766 6.37291 27.3976L6.51634 27.0949C6.55006 27.0238 6.54665 26.9407 6.50716 26.8726L6.33918 26.5829C6.23983 26.4115 6.38016 26.2005 6.57664 26.2259L6.90875 26.2689C6.98676 26.279 7.06478 26.25 7.11728 26.1915L7.34097 25.9422C7.47352 25.7946 7.71748 25.8629 7.75398 26.0577Z" fill="#F6D476"/>
<path d="M19.3569 20.1072L19.5747 20.3615C19.6259 20.4212 19.7032 20.452 19.7814 20.4437L20.1145 20.4084C20.3115 20.3875 20.4469 20.6017 20.3436 20.7708L20.169 21.0566C20.128 21.1237 20.1227 21.2067 20.1547 21.2785L20.2912 21.5844C20.3719 21.7653 20.2101 21.9603 20.0175 21.9143L19.6917 21.8366C19.6151 21.8183 19.5345 21.8389 19.4761 21.8915L19.2273 22.1159C19.0801 22.2485 18.8447 22.1549 18.8289 21.9575L18.8021 21.6237C18.7958 21.5452 18.7514 21.4749 18.6832 21.4356L18.3931 21.2684C18.2214 21.1695 18.2377 20.9166 18.4206 20.8406L18.7299 20.712C18.8026 20.6818 18.8556 20.6177 18.8719 20.5408L18.9413 20.2131C18.9825 20.0192 19.2279 19.9566 19.3569 20.1072Z" fill="#F6D476"/>
<path d="M18.4036 56.4312L17.8567 56.5445C17.8896 56.533 18.1112 56.4592 18.4036 56.4312Z" fill="#D4CFC4"/>
</svg>
